<svg height="512pt" viewBox="0 0 512 512" width="512pt" xmlns="http://www.w3.org/2000/svg" xmlns:xlink="http://www.w3.org/1999/xlink"><linearGradient id="a" gradientTransform="matrix(1 0 0 -1 0 -12310)" gradientUnits="userSpaceOnUse" x1="0" x2="512" y1="-12566" y2="-12566"><stop offset="0" stop-color="#00f38d"/><stop offset="1" stop-color="#009eff"/></linearGradient><path d="m512 256c0 141.386719-114.613281 256-256 256s-256-114.613281-256-256 114.613281-256 256-256 256 114.613281 256 256zm0 0" fill="url(#a)"/><g fill="#fff"><path d="m128.699219 215.800781c-22.164063 0-40.199219 18.03125-40.199219 40.199219s18.035156 40.199219 40.199219 40.199219c22.167969 0 40.203125-18.03125 40.203125-40.199219s-18.035156-40.199219-40.203125-40.199219zm0 50.398438c-5.625 0-10.199219-4.574219-10.199219-10.199219s4.574219-10.199219 10.199219-10.199219 10.203125 4.574219 10.203125 10.199219-4.578125 10.199219-10.203125 10.199219zm0 0"/><path d="m128.699219 343.097656c-22.164063 0-40.199219 18.035156-40.199219 40.203125 0 22.164063 18.035156 40.199219 40.199219 40.199219 22.167969 0 40.203125-18.035156 40.203125-40.199219 0-22.167969-18.035156-40.203125-40.203125-40.203125zm0 50.402344c-5.625 0-10.199219-4.574219-10.199219-10.199219s4.574219-10.203125 10.199219-10.203125 10.203125 4.578125 10.203125 10.203125-4.578125 10.199219-10.203125 10.199219zm0 0"/><path d="m128.699219 88.5c-22.164063 0-40.199219 18.035156-40.199219 40.199219 0 22.167969 18.035156 40.203125 40.199219 40.203125 22.167969 0 40.203125-18.035156 40.203125-40.203125 0-22.164063-18.035156-40.199219-40.203125-40.199219zm0 50.402344c-5.625 0-10.199219-4.578125-10.199219-10.203125s4.574219-10.199219 10.199219-10.199219 10.203125 4.574219 10.203125 10.199219-4.578125 10.203125-10.203125 10.203125zm0 0"/><path d="m193.183594 241h230.316406v30h-230.316406zm0 0"/><path d="m193.183594 113.699219h230.316406v30h-230.316406zm0 0"/><path d="m193.183594 368.300781h230.316406v30h-230.316406zm0 0"/></g></svg>