<?xml version="1.0" encoding="utf-8"?><!DOCTYPE svg PUBLIC "-//W3C//DTD SVG 1.1//EN" "http://www.w3.org/Graphics/SVG/1.1/DTD/svg11.dtd"><svg version="1.1" id="Contours" xmlns="http://www.w3.org/2000/svg" xmlns:xlink="http://www.w3.org/1999/xlink" x="0px" y="0px" width="2048.191895px" height="2048.191895px" viewBox="-0.000000 0.000000 2048.191895 519.032593" enable-background="new 0 0 2048.191895 2048.191895" xml:space="preserve" stroke="black" fill="none" stroke-linecap='round' stroke-linejoin='round'><path class="selected"  fill="#000000" opacity="1.000000" stroke="none" 
 	d="
M0.096111 275.189041 C4.485915 277.514328 7.239566 273.883041 9.936681 271.823898 C14.595725 268.266891 20.815296 265.008377 18.967300 257.564072 C17.792564 252.831863 15.406523 248.393753 13.488120 243.855728 C12.648431 241.869431 10.928162 240.006485 10.802534 238.012253 C10.366462 231.090073 9.034523 223.774582 10.683227 217.278702 C13.022232 208.062973 24.297718 203.761124 34.893341 206.207565 C37.884475 206.898239 40.063762 206.052353 40.088890 202.476303 C40.119339 198.143356 41.275043 193.358139 39.826881 189.580093 C37.505928 183.525101 37.686355 177.397324 36.604641 171.344498 C36.041725 168.194717 31.698772 165.869003 29.598167 162.804428 C27.426590 159.636307 24.539818 156.042068 24.494161 152.600662 C24.451742 149.403122 27.037500 145.276169 29.723612 143.138626 C34.174831 139.596451 39.330097 136.768509 45.579937 136.838394 C48.990181 136.876511 50.320789 137.750656 50.161129 141.303055 C49.914448 146.791733 50.075897 152.299789 50.102577 157.799454 C50.123527 162.116989 50.187923 166.057022 52.816829 170.232193 C55.426140 174.376297 55.721924 179.962967 57.121090 184.891800 C57.539074 186.364151 58.230491 187.762741 58.844734 189.174179 C59.213833 190.022354 60.113037 190.878464 60.027748 191.648361 C59.266487 198.519760 64.683231 202.757584 66.910908 208.331619 C68.569561 212.481827 70.391025 216.748611 70.954983 221.116501 C72.094951 229.945572 72.153690 238.911026 73.192386 247.757523 C73.892956 253.724167 76.106685 254.608749 81.149166 251.942703 C81.830257 251.582626 82.505153 251.123337 83.238216 250.963303 C87.896641 249.946304 89.829998 245.741653 87.369633 241.726730 C83.826732 235.945358 81.268833 230.024673 81.970806 222.897812 C82.344333 219.105637 80.569996 214.999069 81.359218 211.382217 C82.029880 208.308853 84.383709 204.616562 87.058475 203.174026 C92.460575 200.260574 93.606975 197.211319 90.195667 192.403305 C85.861980 186.295242 79.468395 180.058395 78.759876 173.369003 C77.863918 164.910019 71.158581 160.767868 69.094463 153.648544 C67.134533 146.888565 64.107471 140.379776 60.997120 134.031265 C58.809234 129.565628 55.313671 125.745987 53.072906 121.299789 C47.928142 111.091385 40.631813 102.659592 32.503151 94.820480 C31.942150 94.279434 31.340019 93.611191 31.148674 92.897110 C30.872293 91.865677 30.954336 90.738205 30.883449 89.651688 C31.923851 89.883652 33.280250 89.777206 33.951767 90.404221 C37.482311 93.700790 40.771568 97.255692 44.301136 100.553360 C45.289982 101.477249 46.809521 101.833115 48.085613 102.449539 C47.816513 101.173447 47.827324 99.745377 47.231037 98.646896 C44.270752 93.193344 41.032608 87.887863 38.174228 82.383804 C37.509140 81.103134 37.944412 79.250961 37.873386 77.661758 C38.934009 78.240555 40.335274 78.565170 40.992058 79.445328 C43.049511 82.202560 44.826278 85.169205 46.711799 88.054733 C48.597309 90.940262 50.394237 93.891220 52.439342 96.658829 C52.874775 97.248093 54.213482 97.169846 55.136043 97.399124 C55.186867 96.476578 55.553360 95.423386 55.234886 94.653641 C53.704407 90.954453 51.740635 87.414932 50.476112 83.636215 C50.043693 82.344009 51.200321 80.520035 51.630928 78.939041 C52.452656 80.076797 53.373684 81.156631 54.077789 82.363022 C56.345543 86.248520 58.464130 90.223343 60.823883 94.050491 C61.192932 94.649033 62.512031 94.789780 63.407421 94.835281 C63.602711 94.845169 64.148784 93.496628 64.050022 92.847214 C63.409618 88.636215 62.512211 84.461838 61.953071 80.241837 C61.634910 77.840530 61.798019 75.375412 61.744396 72.939041 C63.528293 74.671799 66.184971 76.097275 66.924396 78.197708 C68.777660 83.462143 69.663013 89.059433 71.137104 94.468552 C71.904445 97.284317 72.965000 100.041550 74.133114 102.720596 C75.293812 105.382614 77.274837 107.971359 80.367992 106.747604 C82.324375 105.973618 83.493725 103.292709 85.109546 101.553970 C87.011310 99.507584 88.864940 97.361008 91.059444 95.674210 C91.764873 95.131973 93.484951 95.909836 94.740841 96.083755 C94.506321 97.221786 94.661861 98.744736 93.977207 99.438583 C86.808933 106.703171 84.383411 116.488663 80.538418 125.410110 C79.479328 127.867508 81.443325 132.068405 82.864696 135.069290 C86.698665 143.163834 90.985981 151.043686 95.100910 159.004868 C95.315395 159.419815 95.518528 159.898026 95.863361 160.179855 C104.109844 166.920059 108.197674 176.654037 113.819896 185.265182 C115.741977 188.209122 116.449924 192.008713 118.580494 194.740463 C123.074329 200.502335 127.973110 205.979813 133.055614 211.235641 C135.084804 213.334061 139.532894 210.145676 140.149257 206.780411 C141.475017 199.541733 137.286327 194.032455 134.645260 188.030045 C134.333065 187.320541 133.308941 186.859085 133.146679 186.159348 C132.049770 181.429550 132.385265 175.780807 129.846523 172.085770 C123.106685 162.276321 128.984234 151.135117 125.618961 141.743301 C122.859272 134.041611 124.938663 125.724747 120.341404 118.404556 C117.660908 114.136459 117.665287 108.253708 116.036510 103.235428 C113.992519 96.937851 112.121982 90.461563 109.065151 84.646622 C105.364200 77.606430 100.112354 71.389755 96.291157 64.401413 C94.111286 60.414780 93.859936 55.415024 91.979633 51.211655 C90.086056 46.978668 87.205936 43.193253 84.838695 39.164352 C81.613254 33.674866 78.433071 28.157776 75.343822 22.591278 C75.106396 22.163452 75.680576 20.692200 75.980655 20.659744 C77.429218 20.503098 79.396404 20.096603 80.287296 20.843338 C82.359905 22.580582 83.938968 24.913727 85.683262 27.033997 C88.644947 30.634018 91.471088 34.354309 94.591427 37.809830 C95.543194 38.863861 97.273449 39.214935 98.647182 39.887955 C98.796818 38.392838 98.990474 36.900391 99.081936 35.401703 C99.152859 34.239410 99.096111 33.069321 99.096111 31.902695 C99.096111 23.069702 99.017269 14.235413 99.161335 5.404770 C99.190838 3.596191 100.055485 1.801239 100.535160 0.000000 C102.055469 1.662872 104.684383 3.201172 104.887859 5.012024 C105.493816 10.404816 105.010883 15.910538 105.245289 21.359573 C105.328831 23.301666 106.103557 25.265625 106.837223 27.110474 C107.347912 28.394592 108.897663 29.451233 108.986881 30.681732 C109.234585 34.098099 110.240970 34.802475 113.826603 34.100311 C119.630588 32.963699 124.272495 36.959534 128.957897 39.531357 C133.256740 41.890976 133.108806 46.790298 133.098644 51.201736 C133.087490 56.034866 133.344890 60.883774 133.040127 65.697647 C132.533077 73.706528 133.529125 81.126083 137.771038 88.282761 C144.162288 99.065689 148.045711 111.130051 155.616573 121.463028 C159.057430 126.159225 159.593288 133.095932 161.029369 139.115952 C162.343914 144.626450 162.971203 150.299393 164.221950 155.828201 C164.424831 156.724991 166.240215 157.711594 167.403072 157.844467 C170.035274 158.145248 172.763164 158.211807 175.379574 157.849564 C177.343654 157.577652 180.470608 156.871994 180.826702 155.684036 C181.536724 153.315384 181.683727 149.630600 180.292034 148.019272 C177.434551 144.710861 178.136730 143.031662 180.372234 139.709213 C182.016277 137.265823 182.033870 132.921982 181.238506 129.819199 C179.795330 124.189224 177.202007 118.854691 175.109096 113.389053 C174.997906 113.098648 175.213634 112.599380 175.043972 112.427292 C170.999325 108.324570 170.004207 104.356674 174.989986 100.084518 C175.596569 99.564743 175.153744 97.128525 174.507915 95.962173 C172.094539 91.603683 169.532390 87.311691 166.762096 83.171341 C164.118084 79.219742 161.103542 75.517502 158.365185 71.625931 C157.986248 71.087387 157.975780 69.546555 158.273296 69.392197 C160.729503 68.117966 163.233516 66.829483 165.875332 66.087509 C166.619549 65.878494 168.034008 67.318344 168.859188 68.251266 C175.857769 76.163834 184.154934 83.354050 189.296093 92.343185 C193.144863 99.072586 196.219951 100.443558 203.290279 99.285477 C207.235576 98.639206 209.550014 97.027908 211.919903 94.584244 C213.785793 92.660263 215.797237 91.771286 217.661876 94.185623 C218.258800 94.958511 218.180294 97.173325 217.515682 97.852554 C212.817776 102.653946 209.730816 108.097122 209.001186 114.901688 C208.815822 116.630478 207.810680 118.584427 206.571895 119.825974 C203.397411 123.007431 202.404918 127.014420 200.895962 131.022079 C199.473217 134.800735 200.958950 135.810806 203.721966 137.131241 C206.237423 138.333359 208.525753 140.001114 210.994732 141.311966 C217.474560 144.752304 215.371776 151.517136 217.097866 156.796524 C218.956173 162.480453 215.284603 167.141708 214.225429 172.283463 C213.629192 175.177872 212.054638 178.099045 212.318157 180.875504 C212.561703 183.441574 214.038128 186.808945 216.070278 188.118912 C222.824260 192.472580 230.046398 196.108170 237.143276 199.918106 C240.676082 201.814682 244.469997 203.255112 247.889156 205.325699 C252.406338 208.061264 255.088878 207.290176 257.194469 202.380264 C259.379986 197.283951 261.809856 192.292770 264.062725 187.224442 C264.310161 186.667831 264.096111 185.906021 264.096111 185.239395 C264.096111 177.406357 264.236126 169.568344 263.958080 161.745193 C263.911815 160.443283 262.259258 158.423294 260.982128 158.073135 C255.120525 156.466141 254.757946 154.665787 257.045604 149.120041 C258.232982 146.241653 256.917156 142.209854 256.336406 138.765854 C255.957561 136.519302 254.948772 134.359299 254.071514 132.222397 C253.311504 130.371048 252.115062 128.677414 251.519314 126.785660 C250.816036 124.552414 250.507885 122.187546 250.161785 119.859909 C250.126476 119.622452 251.161083 118.887650 251.430019 119.004257 C252.381893 119.417068 253.562908 119.908463 254.013881 120.725174 C254.668010 121.909927 254.490993 123.558365 255.158428 124.729874 C256.216839 126.587601 257.680340 128.214493 258.972454 129.939041 C259.386822 128.399216 259.300792 126.185928 260.304943 125.439743 C264.035167 122.667740 264.438915 119.040085 264.189159 114.921677 C264.151439 114.299393 265.356304 113.601791 265.986400 112.939041 C266.689617 113.695328 268.024547 114.484421 267.987224 115.202194 C267.822155 118.375839 267.288463 121.532822 266.822307 124.686081 C266.735485 125.273331 265.998638 125.947525 266.153911 126.357071 C267.000469 128.589798 268.032177 130.752365 269.000225 132.939041 C270.216625 131.587936 271.709514 130.395920 272.596386 128.855148 C275.028515 124.629929 280.009533 122.252213 283.201610 123.908463 C285.348247 125.022293 285.389110 125.913315 283.244579 126.929062 C282.411663 127.323502 281.377270 127.425644 280.700023 127.983231 C279.790874 128.731766 279.139019 129.792770 278.376690 130.719620 C279.396862 130.512405 280.411266 130.184219 281.439007 130.134842 C282.316723 130.092697 283.209820 130.370712 284.096111 130.507156 C283.490825 132.089706 283.315136 134.559647 282.204143 135.097488 C277.949138 137.157303 276.667766 141.394638 278.357647 144.282394 C281.862255 150.271347 280.555218 156.496841 281.302105 162.614670 C281.372692 163.192734 281.673015 163.970169 282.118480 164.240982 C289.145000 168.513412 285.330364 174.060165 284.211742 179.487198 C283.666729 182.131485 283.999889 185.096664 284.543285 187.794144 C285.468029 192.384842 285.524547 196.551498 282.271557 200.413101 C281.373394 201.479294 281.157146 203.373245 281.144665 204.891647 C281.054180 215.890518 281.096111 226.890427 281.096111 237.890030 C281.096111 239.056656 281.515239 240.445206 281.032757 241.356308 C274.575420 253.550583 279.718334 266.608261 278.178142 279.155838 C278.070843 280.030014 278.898998 281.398239 279.697155 281.939255 C283.312328 284.389877 286.903728 286.997177 290.847088 288.794815 C293.086559 289.815720 294.973308 288.764908 295.207836 285.383133 C295.686870 278.476608 293.802837 272.267563 291.753094 265.784134 C289.982769 260.184647 286.604015 254.664902 288.084972 248.273788 C289.355572 242.790482 290.622875 237.303177 291.711742 231.782150 C292.382091 228.383102 292.749096 225.252975 295.088909 222.110397 C299.084606 216.743912 305.196087 215.860977 310.292461 212.863937 C316.394787 209.275314 322.907421 208.729324 329.679088 208.934525 C342.871685 209.334366 354.957989 218.410904 355.230968 234.011887 C355.434124 245.624741 351.909435 256.005447 347.307476 266.288101 C346.807445 267.405472 346.884685 268.781174 346.694134 270.037064 C347.852398 269.813461 349.246563 269.926193 350.127941 269.307877 C353.887310 266.670731 357.524090 264.437057 362.436229 266.720322 C362.931835 266.950699 365.925640 264.111038 365.892498 262.741287 C365.793987 258.670517 364.411937 254.642258 364.180095 250.560532 C363.849834 244.746170 364.014812 238.897446 364.130596 233.066635 C364.188061 230.173080 364.033367 227.674728 361.466656 225.567764 C360.536815 224.804550 360.376201 222.418808 360.693371 220.952713 C361.579448 216.857010 361.441784 213.031631 359.089275 209.470963 C355.892376 204.632370 353.213939 199.690781 354.065899 193.534012 C354.743694 188.635971 353.032329 184.284927 351.350078 179.688431 C349.933910 175.819107 348.787945 171.779495 349.668224 166.777725 C351.204510 158.048447 350.517193 148.819443 349.789440 139.879013 C349.615276 137.739151 345.910747 135.072159 343.300030 134.153427 C340.106914 133.029800 339.401134 132.266403 341.044811 129.226486 C344.593548 122.663162 347.743786 122.204880 354.598797 128.054947 C356.651195 129.806442 357.891430 130.731552 360.287273 128.455154 C361.739727 127.075058 364.182659 126.092728 366.188823 126.078262 C370.022564 126.050613 370.376354 123.581314 371.169719 120.904984 C371.595806 119.467575 372.590679 118.054398 373.696514 117.025284 C374.228985 116.529770 375.864513 116.592148 376.531566 117.064377 C377.079418 117.452164 377.376873 119.052414 377.027202 119.715500 C373.778423 125.876083 375.849743 133.455429 371.350048 139.415665 C369.084942 142.416031 371.651256 146.720444 375.275341 148.011215 C376.851177 148.572495 378.432049 149.686630 379.491344 150.976242 C380.616802 152.346390 380.964092 153.844559 378.051220 153.993607 C367.558422 154.530502 363.855053 164.910690 369.790447 172.189713 C370.445324 172.992844 371.101116 174.179520 371.026287 175.130844 C370.538982 181.327347 374.834209 185.573318 377.041118 190.674149 C378.445537 193.920212 379.014751 197.536179 380.491802 200.740402 C383.334148 206.906479 386.865551 212.767166 389.498455 219.012802 C390.991985 222.555740 391.358410 226.594772 392.065899 230.440994 C392.556316 233.107254 392.628307 235.852676 393.160351 238.508011 C393.382396 239.616318 394.313152 240.582626 394.921642 241.613510 C396.821667 239.442703 400.953930 243.094803 402.158733 238.531082 C405.201580 227.005234 411.123638 216.886246 417.416271 206.823410 C421.178142 200.807571 422.572429 193.473984 419.928478 186.367599 C417.095043 178.751846 418.601787 171.568741 421.177562 164.404922 C422.634624 160.352493 425.145977 156.556442 425.913769 152.410019 C426.871288 147.239090 430.881511 144.904800 434.001140 141.796982 C435.075634 140.726578 437.670269 141.075241 439.567364 141.093918 C439.769237 141.095901 440.469341 143.503983 440.045452 144.346664 C438.648327 147.123642 436.672161 149.610336 435.289379 152.392868 C434.848980 153.279037 435.566723 154.740707 435.754497 155.939041 C436.868358 155.426712 438.066356 155.040634 439.074047 154.369003 C440.238231 153.593002 441.234783 152.565414 442.304058 151.646988 C442.125042 153.354050 442.253063 155.165848 441.712627 156.749588 C439.622753 162.873917 437.245708 168.900742 435.194958 175.037186 C434.953747 175.758957 436.069561 176.934189 436.556286 177.899216 C437.402874 177.305069 438.489116 176.880173 439.050792 176.084824 C440.669353 173.792892 441.947002 171.253067 443.642101 169.026505 C444.176922 168.323959 445.606731 168.302811 446.626903 167.969833 C446.704052 169.205490 447.342083 170.886612 446.770183 171.606827 C441.904613 177.733688 441.421459 184.773727 440.721447 192.254135 C440.252849 197.261246 436.262584 201.958176 433.765178 206.750595 C431.262462 211.553238 428.066417 216.087631 426.235485 221.125320 C423.541820 228.536697 421.551281 236.233200 419.710552 243.915878 C418.171245 250.340683 417.293529 256.923141 416.080883 263.427933 C415.854381 264.643051 415.783092 266.148209 415.033672 266.958633 C412.119823 270.109604 412.527111 273.939438 411.901623 277.741348 C411.085094 282.704605 409.671520 287.935287 407.051159 292.138443 C404.139171 296.809372 405.168010 301.014999 406.323314 305.396500 C406.504253 306.082718 409.691204 306.583633 411.182506 306.140762 C412.587047 305.723770 413.469677 303.782150 414.806347 302.824509 C415.758709 302.142227 417.082897 301.978989 418.241131 301.584061 C418.339763 303.055435 418.995067 305.544388 418.451458 305.841812 C412.574749 309.056534 411.861858 316.079727 407.383922 320.354874 C404.416515 323.187820 403.761883 326.725174 407.038769 330.587418 C409.750805 333.783951 410.106518 338.690323 414.482281 340.918228 C416.884472 342.141251 418.742534 342.585648 421.771068 342.264236 C430.189190 341.370743 436.934643 336.806473 444.386272 333.849380 C445.532390 333.394608 446.909221 331.785782 446.974285 330.642044 C447.257824 325.658401 447.281872 320.637833 446.973369 315.657181 C446.889934 314.310379 445.592968 312.422623 444.365520 311.874161 C440.067119 309.953323 439.951000 306.453079 440.078930 302.634903 C440.168163 299.971329 439.698009 297.229477 440.170360 294.649368 C441.618145 286.741653 438.604870 280.091232 433.329021 275.059738 C429.604595 271.507828 426.172741 269.273392 429.982036 263.856033 C430.563549 263.029037 429.739818 261.100296 429.366588 259.735672 C427.873821 254.277573 430.256908 249.923019 435.812450 247.918167 C437.546062 247.292587 439.546184 246.790512 440.803783 245.584732 C443.701092 242.806717 446.250347 239.832169 450.926464 240.910202 C454.449932 241.722488 458.262005 241.718216 461.538372 243.066757 C466.663158 245.176102 471.420818 248.167374 476.393352 250.666946 C477.196911 251.070877 478.306560 250.906845 479.276623 250.932022 C485.443889 251.092178 490.429607 254.946732 492.161236 260.491745 C492.841320 262.669449 493.927776 264.896255 495.397899 266.613968 C498.331829 270.041885 499.460918 273.743088 497.030254 277.569992 C491.822033 285.769821 490.172741 294.579727 491.027050 304.131638 C491.390972 308.200455 492.153972 312.548965 486.849315 314.902725 C484.636577 315.884598 482.049572 330.395767 483.107555 332.390274 C485.029125 336.012772 487.359356 338.566849 492.204632 338.103043 C494.840404 337.850723 497.820324 338.871597 500.323101 340.019852 C506.099285 342.669876 510.527508 340.575699 512.198955 334.568192 C513.135906 331.200760 514.755840 327.885452 516.697246 324.964920 C520.428631 319.351761 519.579021 314.111649 517.241375 308.211075 C514.911846 302.330948 513.858318 295.955246 512.070110 289.848068 C510.158947 283.320663 508.157299 276.814804 505.992077 270.367722 C501.870586 258.095627 500.565288 245.250748 498.065899 232.647812 C497.493694 229.762527 496.780437 226.858414 495.704937 224.131424 C494.337383 220.663864 494.311931 217.314865 495.628948 213.933884 C496.710644 211.156967 495.897655 209.837418 492.906658 209.942368 C488.907055 210.082687 488.147167 207.757523 487.947918 204.293869 C487.854503 202.669907 486.552959 200.468216 485.151989 199.683945 C480.295116 196.965134 479.417461 192.183182 478.155376 187.583603 C477.772625 186.188705 478.096111 184.599991 478.096111 183.100052 C478.096111 177.100266 479.505504 170.625656 477.690075 165.237534 C475.959209 160.100327 470.987682 155.990372 467.205852 151.632706 C464.878032 148.950424 463.396496 146.678146 464.882458 142.734512 C465.730266 140.484390 464.219494 137.427078 464.189037 134.728500 C464.174846 133.471146 465.154796 132.202560 465.684124 130.939041 C466.715923 131.666855 468.016796 132.195847 468.729137 133.159744 C470.872356 136.059738 472.578502 139.301285 474.868603 142.067215 C476.215404 143.693924 478.646404 145.954880 480.054516 145.627579 C481.999492 145.175552 483.439892 142.552048 485.096020 140.858200 C485.721050 140.218979 486.345104 139.578781 486.969616 138.939041 C487.345104 139.661148 488.032299 140.377365 488.046001 141.106277 C488.141063 146.161453 488.003490 151.221512 488.122967 156.275650 C488.235363 161.030441 486.791149 166.138748 491.057842 170.074570 C491.667492 170.636917 492.252941 171.925461 492.023113 172.593643 C488.095440 184.012680 496.367199 191.679977 501.023510 200.063797 C508.281475 213.132034 517.251690 225.243332 524.649029 238.242355 C529.269573 246.361862 532.261760 255.399979 536.162456 263.944687 C536.862835 265.478867 538.429546 266.617599 539.596233 267.938950 C539.771282 266.114059 540.086712 264.289963 540.097210 262.464096 C540.144329 254.301559 540.115703 246.138443 540.090008 237.975632 C540.080913 235.077744 539.988628 232.559952 537.909038 229.793503 C536.184612 227.499466 536.760113 223.478226 536.311504 220.222885 C536.014019 218.063980 536.441936 215.333755 535.281109 213.844833 C529.525860 206.462906 529.701519 197.989548 530.222210 189.455887 C530.296917 188.230637 531.836590 186.651505 533.092388 186.020981 C537.684490 183.715347 538.834636 178.987320 534.954754 175.459946 C532.296795 173.043503 533.357952 171.725449 535.408733 170.140396 C536.532940 169.271439 537.652019 168.357254 538.895550 167.691574 C540.244854 166.969284 541.736065 166.511978 543.165325 165.939072 C543.475567 167.059677 543.442852 168.508591 544.150921 169.248520 C549.335735 174.666855 544.927044 182.713455 549.767193 188.551163 C551.690838 190.871353 549.804241 194.917953 547.046184 197.578568 C541.959148 202.485977 541.954754 207.621902 545.427227 213.965530 C547.618084 217.967758 548.410015 222.711288 550.145244 226.994339 C551.821270 231.131210 553.888836 235.110428 555.825786 239.139053 C556.030254 239.564255 556.851360 239.893051 556.817119 240.203842 C555.821514 249.232773 562.284038 256.595749 562.243145 265.542679 C562.207134 273.429703 563.240948 281.347183 564.270794 289.189713 C564.455120 290.593155 566.889690 292.724380 568.339214 292.769058 C576.538616 293.021652 583.954326 295.863937 591.481914 298.593918 C592.249065 298.872147 594.976116 296.722824 594.918133 295.820450 C594.518963 289.604446 593.867412 283.378555 592.821697 277.236771 C591.479656 269.354874 589.955486 261.481216 587.969524 253.742691 C587.146831 250.537186 585.206951 247.489975 583.253277 244.741806 C581.539348 242.331009 578.669048 240.707443 577.111065 238.231735 C575.886333 236.285599 574.817058 233.168015 575.532696 231.269638 C577.971721 224.799088 581.236614 218.640366 584.174846 212.357285 C586.031841 208.386063 587.683819 208.297043 591.239727 211.336746 C601.180523 219.834335 607.679729 229.875900 606.996868 243.262100 C606.444622 254.088516 608.235576 264.318619 611.955730 274.420456 C613.507915 278.635269 613.829143 283.289017 615.169597 287.600327 C616.399151 291.555161 618.480633 295.241348 619.769085 299.182449 C621.855144 305.563858 624.316509 311.740189 622.329021 318.958084 C621.201763 323.052139 621.633709 327.628983 624.883526 331.815750 C627.296978 334.925003 627.742534 339.552872 629.108623 343.489090 C629.511577 344.650040 629.923748 345.854752 630.604107 346.853836 C630.982158 347.408951 631.922405 347.581131 632.609234 347.925919 C632.771526 347.326492 633.145183 346.697098 633.065044 346.132034 C631.203289 332.997879 636.113567 320.995621 638.918010 308.574173 C640.846660 300.031754 641.252788 291.124130 642.032757 282.352463 C642.447857 277.684280 640.891887 273.647324 637.151531 270.361832 C634.362224 267.911819 631.838543 265.016983 629.782573 261.929947 C628.620281 260.184769 628.607891 257.658493 628.136516 255.471359 C626.910808 249.783707 622.915691 246.049423 618.953228 242.264847 C617.904644 241.263321 616.312053 240.107040 616.246685 238.949631 C616.105755 236.455307 616.794048 233.914108 617.143047 231.392105 C618.654827 232.601852 620.312481 233.671097 621.644329 235.054092 C623.660259 237.147415 625.365459 239.538132 627.359234 241.655075 C629.246258 243.658707 631.318096 245.043991 633.598614 241.973465 C634.286785 241.046951 635.228191 240.308762 636.052105 239.482834 C638.815777 236.712296 641.234356 232.691513 645.861553 236.916672 C646.406719 237.414444 647.355694 238.034683 647.908306 237.874832 C656.476543 235.397049 659.650310 243.495193 665.283184 246.712753 C665.985210 247.113754 666.634990 248.251755 666.668255 249.074173 C666.904522 254.909164 667.141826 260.753738 667.044353 266.589645 C666.962139 271.512741 666.305950 276.423721 666.121197 281.348221 C665.707622 292.373367 665.353985 303.402603 665.208782 314.433243 C665.193706 315.581192 666.599407 316.926041 667.662823 317.789017 C667.940655 318.014481 669.516765 316.889969 670.315166 316.181168 C673.816814 313.072586 675.854168 309.836624 674.256145 304.541000 C672.203411 297.738449 677.291729 292.260269 679.377483 286.272049 C681.957561 278.864426 685.232342 271.701614 688.072857 264.380966 C690.190960 258.922104 692.093853 253.379807 694.098552 247.876846 C694.414776 247.008774 695.121929 246.116928 695.041240 245.295731 C694.105572 235.775009 700.336345 228.841019 703.587139 220.809402 C705.899517 215.096024 707.809978 209.107712 708.945720 203.062851 C710.009868 197.398758 706.096111 193.030075 703.215313 188.522842 C699.097942 182.081009 695.021831 175.607712 691.132366 169.027115 C688.378460 164.367783 685.938274 159.521469 683.418926 154.726639 C682.979107 153.889481 682.841289 152.893631 682.564068 151.971085 C683.819927 151.872269 685.399700 151.245682 686.267986 151.778488 C688.444073 153.113907 690.169903 155.171799 692.318584 156.566666 C694.322246 157.867416 696.989727 159.922195 698.733196 159.425797 C701.276409 158.701797 702.893657 155.843277 702.117595 152.572250 C701.967876 151.941116 701.817425 150.990463 702.149334 150.625809 C703.076397 149.607193 704.182171 148.290665 705.362346 148.125229 C706.144573 148.015579 707.761333 149.556931 707.985332 150.581863 C708.632122 153.541855 708.503460 156.677597 709.216533 159.613846 C709.525738 160.886948 711.268963 162.848099 712.155864 162.744339 C714.528545 162.466843 716.793072 161.248245 719.074688 160.338547 C719.117107 160.321579 718.816936 159.504044 718.713726 159.051559 C718.450359 157.896194 718.208050 156.736008 717.957317 155.577744 C718.859722 155.387589 720.239910 154.740677 720.575786 155.092056 C721.627605 156.192307 722.553386 157.586563 722.998028 159.030136 C723.275432 159.930740 722.372967 161.129959 722.391521 162.188309 C722.432720 164.544327 722.459148 166.960922 723.021221 169.221054 C723.285625 170.283920 724.773296 171.042557 725.706646 171.939041 C726.503155 171.109360 727.240032 170.210037 728.109600 169.465714 C729.544414 168.237442 731.064983 167.109360 732.549419 165.939041 C733.398357 168.078201 735.219036 170.359177 734.931072 172.332443 C733.541851 181.852829 736.885296 185.416733 746.412029 183.977798 C748.204387 183.707047 750.209881 183.524857 751.861797 184.072220 C753.145855 184.497604 754.032757 186.121780 755.096111 187.213150 C754.247051 187.804214 753.320904 188.310532 752.561931 189.000687 C748.716167 192.497635 744.225078 195.550461 741.267010 199.692307 C737.400310 205.106552 736.378948 211.552933 735.728496 218.463760 C734.716594 229.216232 732.326336 239.827225 732.996868 250.760544 C733.069256 251.940506 731.989971 253.412827 731.066570 254.393082 C727.383831 258.302109 729.815288 262.513168 730.348064 266.600967 C730.415691 267.119461 731.866741 268.016983 732.164959 267.845963 C733.258953 267.218735 734.333843 266.354233 735.061199 265.327744 C737.877788 261.353165 740.404339 257.163193 743.378460 253.315964 C744.317241 252.101639 746.571209 251.984756 747.778118 250.879562 C750.054668 248.794876 751.985760 246.336441 754.105816 244.075943 C755.133098 242.980576 756.205974 241.911606 757.366314 240.962936 C758.181682 240.296280 759.399761 240.042221 760.057964 239.277054 C762.868328 236.009903 765.339702 232.434067 768.294781 229.311630 C777.602886 219.476761 787.155559 209.872269 796.396404 199.975815 C797.869365 198.398392 798.810833 195.821487 798.977337 193.629105 C799.354839 188.657974 799.580242 183.577469 798.959881 178.655869 C798.340313 173.740494 800.892010 170.097397 802.584270 166.084763 C802.990886 165.120529 805.373638 163.934555 805.488811 164.063614 C806.841289 165.578659 808.741802 167.237198 808.936809 169.027908 C809.421184 173.474960 808.911846 178.021439 809.185161 182.504593 C809.297466 184.347061 810.395672 186.129379 811.045452 187.939041 C812.708721 186.792770 814.461651 185.752853 815.998089 184.456345 C816.796978 183.782211 817.009075 182.321518 817.848430 181.807053 C819.267437 180.937363 820.974041 180.536819 822.559673 179.939041 C822.442364 181.401810 822.076153 182.897598 822.264690 184.319809 C822.567486 186.603775 822.538799 189.987869 823.915996 190.825089 C825.970684 192.074173 829.237835 192.029221 831.759685 191.480331 C832.836529 191.245926 834.062786 188.281265 833.904705 186.687881 C833.723003 184.856369 832.457073 182.725876 831.006389 181.503342 C826.726299 177.896317 822.921734 173.998764 820.538494 168.870987 C820.120586 167.971817 819.571514 167.036667 819.540569 166.102921 C819.528423 165.736435 820.985515 164.848984 821.402569 165.034134 C822.416179 165.484207 823.421551 166.281296 824.047222 167.199539 C824.994854 168.590317 825.517498 170.266342 826.425762 171.690353 C826.802227 172.280563 827.708172 172.533005 828.373272 172.939041 C828.614239 172.249039 828.864116 171.561966 829.088909 170.866745 C829.137676 170.715866 829.097881 170.535721 829.095928 170.369095 C829.063030 167.602341 828.535747 164.667282 831.620220 162.963150 C832.112163 165.259262 832.480205 167.591690 833.137920 169.839279 C833.609600 171.451065 834.322735 173.041702 835.217327 174.459244 C835.662273 175.164200 836.757488 175.458817 837.558513 175.939041 C838.071026 174.992050 838.579998 174.043106 839.096844 173.098465 C839.999309 171.449203 840.906658 169.802597 841.811931 168.154831 C842.509807 170.313065 843.936199 172.543167 843.731975 174.612350 C843.437908 177.591782 841.511028 181.789108 844.908306 182.615128 C849.477276 183.726089 852.431011 186.945572 856.100933 188.546005 C864.750286 192.317886 871.844158 197.522476 878.074688 204.339615 C879.097515 205.458694 880.686260 206.858200 881.968059 206.813950 C890.514873 206.518936 896.849407 211.312973 903.324993 215.721725 C909.336162 219.814316 915.314312 223.984970 921.024883 228.479691 C925.261883 231.814651 929.229717 235.547867 932.972820 239.435532 C935.686382 242.253922 937.505962 240.760849 938.864544 238.576279 C943.959270 230.383804 948.650615 221.937820 953.834026 213.804092 C957.046489 208.763138 957.456280 203.906540 956.365764 198.006302 C955.408306 192.825974 955.985454 187.018600 957.312176 181.854935 C958.669719 176.570969 961.531963 171.607590 964.174114 166.741989 C966.054851 163.278427 969.064434 160.905655 973.458538 161.989883 C974.419292 162.226944 975.221111 163.108109 976.096111 163.692642 C975.552044 164.441422 975.060039 165.235825 974.452556 165.929001 C973.370586 167.163467 971.899212 168.182938 971.219829 169.594986 C970.832256 170.400436 971.688885 171.804520 971.985271 172.939041 C972.688885 172.211746 973.373028 171.464218 974.101848 170.763138 C974.761394 170.128738 975.469707 169.545059 976.156536 168.939041 C976.803020 169.752060 978.093914 170.676590 977.976116 171.357254 C977.611980 173.460495 977.044231 175.674301 975.945965 177.473007 C973.907268 180.811935 973.231609 183.360977 976.191875 186.944870 C977.852093 188.954758 977.701275 192.860550 977.567058 195.876541 C977.190410 204.343826 971.647930 210.715347 968.226360 217.981461 C964.956280 224.925766 962.906231 232.434158 960.057476 239.590103 C956.925823 247.456772 955.027263 255.709396 950.822185 263.316971 C948.846844 266.890549 948.636089 271.894485 946.154094 275.841385 C944.356731 278.699692 943.071453 281.883499 941.601177 284.943039 C939.801616 288.688034 939.302166 292.057724 941.632610 296.203934 C946.234051 304.390976 949.880962 313.108414 954.133220 321.499832 C957.142071 327.437576 961.031475 332.982315 963.527813 339.109940 C965.504986 343.963150 966.478252 349.387650 966.963115 354.644669 C967.542400 360.925552 968.671428 361.938126 973.929363 358.946609 C976.351482 357.568558 978.851909 356.326920 981.260845 354.927078 C985.511028 352.457291 986.437847 348.836197 983.469890 344.910172 C981.261699 341.989151 980.592449 339.287613 981.641582 335.627213 C982.097088 334.037918 980.782635 331.321793 979.430889 329.940994 C973.496685 323.879410 970.199322 317.011978 971.046795 308.341751 C971.353374 305.205154 970.824871 301.982010 971.187237 298.857498 C971.448467 296.605240 972.593853 294.463028 973.266155 292.247879 C973.628277 291.054550 973.819744 289.809769 974.097515 288.590317 C974.409466 287.220718 974.399578 285.640884 975.113018 284.525650 C977.142498 281.353195 977.176189 277.406754 978.530864 274.446426 C980.320720 270.535110 984.744549 266.956314 988.872844 265.187820 C995.435100 262.376694 1002.651104 260.981339 1010.024090 261.929062 C1017.843303 262.934097 1024.770061 265.936935 1030.706707 271.112534 C1031.623821 271.912033 1032.747600 273.152695 1032.760052 274.201309 C1032.839763 280.947647 1037.895794 286.738266 1036.187664 293.879684 C1035.262127 297.749008 1037.149212 301.164078 1039.034344 304.663406 C1040.302166 307.016678 1040.816692 310.716995 1039.879070 313.115311 C1038.090618 317.690201 1034.929973 321.713516 1032.524212 326.068192 C1031.188274 328.486343 1030.250042 331.121964 1029.090496 333.640274 C1027.414593 337.280228 1026.011394 341.093338 1023.929729 344.487869 C1020.788433 349.610733 1021.626323 353.141312 1026.931072 355.973709 C1032.394085 358.890518 1038.076092 360.422195 1044.293987 359.965286 C1046.779705 359.782669 1048.047771 360.278763 1047.413616 356.229202 C1046.284099 349.015823 1045.874065 341.229507 1047.425579 334.180740 C1049.116985 326.496597 1053.388714 319.382156 1056.507244 312.007339 C1056.806804 311.299026 1056.845135 310.484146 1057.105755 309.754898 C1058.662395 305.400955 1059.760052 300.793198 1061.937420 296.771683 C1065.321453 290.521042 1065.205730 284.633530 1062.140667 278.460983 C1057.955486 270.033188 1053.960979 261.510239 1049.728802 253.106583 C1045.280437 244.273666 1040.836223 235.427048 1035.973552 226.821762 C1034.633831 224.450668 1031.987224 222.653183 1029.627361 221.054062 C1022.458660 216.196091 1017.576458 209.940384 1015.957683 201.235489 C1015.781475 200.287735 1013.665874 199.011490 1012.492534 199.054398 C1006.575054 199.270828 1002.978802 195.539200 999.551861 191.700577 C998.776653 190.832169 998.730572 188.511093 999.329632 187.376572 C1000.792705 184.605728 1001.629131 187.516342 1002.758831 188.084610 C1005.376751 189.401443 1008.065471 190.582016 1010.650005 191.959396 C1013.513897 193.485672 1017.046673 193.624985 1018.185161 190.944016 C1019.234722 188.472397 1017.940471 184.978409 1017.578838 181.946640 C1017.413128 180.557358 1016.279827 178.596909 1016.834209 177.923050 C1019.759990 174.366928 1018.865948 170.281265 1019.159710 166.315353 C1019.269817 164.829117 1020.100628 163.396225 1020.602947 161.939041 C1021.642681 162.647720 1022.693950 163.340225 1023.720379 164.067734 C1030.180950 168.646896 1029.371380 175.305222 1029.197429 182.012558 C1029.058635 187.367050 1028.622967 192.522964 1031.976848 197.890030 C1034.716961 202.274857 1037.603924 204.929276 1041.842205 207.698013 C1047.042400 211.095078 1051.098675 216.507950 1055.022869 221.538162 C1063.291302 232.137009 1069.696087 243.887192 1074.915203 256.270126 C1078.024944 263.648087 1081.076336 271.050888 1084.105144 278.462479 C1085.704510 282.376205 1088.485637 282.864426 1092.061565 280.622574 C1095.696087 278.344070 1100.002727 277.130325 1103.610027 274.818344 C1105.830974 273.394974 1107.677532 271.005630 1109.006878 268.661453 C1111.049480 265.059586 1112.004314 260.779007 1114.329876 257.414810 C1117.362102 253.028214 1121.474529 249.882919 1127.575603 250.828598 C1129.271526 251.091476 1131.175213 250.014084 1132.983562 249.551620 C1132.351482 247.511246 1132.174236 245.151077 1131.004925 243.488541 C1126.977093 237.761856 1122.151409 232.557053 1118.492229 226.621658 C1115.116497 221.145889 1112.059734 215.197220 1110.413738 209.042068 C1109.526653 205.725174 1111.768963 201.503220 1112.828777 197.754440 C1113.750530 194.493362 1115.002849 191.326187 1116.082805 188.108719 C1116.183391 187.809158 1115.974773 187.381058 1116.113933 187.122849 C1119.501262 180.841415 1119.585735 173.516159 1122.470135 167.083176 C1122.849529 166.237198 1123.200847 165.117691 1123.902874 164.718002 C1130.443035 160.994278 1133.837810 154.810684 1135.258709 148.011612 C1136.399944 142.551102 1135.673626 136.682785 1135.588543 130.998184 C1135.571453 129.853317 1134.365764 128.734116 1134.322307 127.579971 C1134.259319 125.905228 1134.171673 123.280807 1135.116131 122.687393 C1138.726970 120.418564 1142.577434 117.997025 1146.655437 117.138809 C1151.965618 116.021286 1152.955730 117.755600 1151.487591 123.079178 C1151.192913 124.147629 1150.848797 125.435318 1151.186443 126.388260 C1151.643474 127.677231 1152.516765 129.161972 1153.637493 129.747849 C1154.348308 130.119431 1155.836345 129.015579 1156.968426 128.555191 C1157.110637 128.497330 1157.189617 128.298386 1157.327923 128.214279 C1159.307171 127.010483 1161.291668 125.815140 1163.274822 124.617752 C1162.997478 127.775925 1163.577556 131.347366 1162.290081 134.018753 C1157.460247 144.040543 1149.428142 152.363266 1146.829632 163.634384 C1145.509685 169.360184 1143.598186 174.950241 1141.918255 180.591019 C1141.790325 181.020279 1141.055950 181.594894 1141.142254 181.715012 C1145.728802 188.100906 1140.986980 193.167038 1138.924724 198.688736 C1137.390545 202.796371 1141.719036 211.944504 1145.673870 214.057175 C1148.280315 215.449600 1150.871746 216.930740 1153.252483 218.669815 C1156.006389 220.681503 1157.928509 223.191330 1157.149822 227.058182 C1156.652385 229.528732 1157.569988 231.046585 1160.582073 231.066757 C1161.758343 231.074600 1163.618450 232.281113 1163.978435 233.344131 C1165.711101 238.461655 1168.625774 240.706924 1173.677166 241.026627 C1176.597942 241.211441 1179.435589 242.463974 1182.361004 242.890610 C1186.026653 243.425217 1189.744671 243.719894 1193.438274 243.704636 C1193.710125 243.703506 1194.359295 240.310684 1194.128216 238.589249 C1193.868938 236.656845 1192.893474 234.794022 1192.080486 232.967300 C1189.317425 226.758041 1188.562176 220.053268 1186.926555 213.564316 C1185.523357 207.998032 1187.504925 202.120956 1193.566814 199.937851 C1195.161663 199.363449 1197.193523 199.212173 1198.272869 198.122147 C1206.424480 189.890610 1215.287761 191.546005 1224.482342 195.799576 C1227.274944 197.091415 1230.231609 198.036118 1232.994427 199.383163 C1237.706585 201.680466 1238.100750 206.805557 1240.010540 210.870834 C1240.851482 212.660873 1240.310467 215.111923 1241.183513 216.872818 C1243.500164 221.545425 1241.511394 225.200668 1238.823162 228.628433 C1236.502239 231.588089 1234.965862 234.597397 1237.621135 237.861557 C1240.483440 241.380264 1244.626018 242.443222 1248.364422 239.948654 C1252.258220 237.350388 1256.926433 236.588577 1260.499553 232.664413 C1263.477825 229.393692 1269.221844 228.286514 1273.960125 227.088181 C1277.601482 226.167313 1278.229412 223.760178 1277.987224 221.158676 C1277.512249 216.055710 1279.543499 212.500992 1283.177288 209.203201 C1285.234783 207.335861 1286.525921 204.633072 1288.215496 202.345993 C1288.705120 201.683151 1289.282146 200.821091 1289.983074 200.619095 C1296.846111 198.641006 1295.022014 193.072189 1295.071331 188.363052 C1295.159344 179.973770 1294.791179 171.569046 1295.172527 163.196213 C1295.660808 152.475021 1291.096111 143.379929 1286.771282 134.143295 C1286.571941 133.717545 1285.762371 133.412552 1285.777385 133.075485 C1286.197185 123.691238 1277.225872 119.012497 1274.811077 111.101730 C1273.515301 106.857132 1272.898845 102.436447 1276.633953 98.965775 C1279.650554 96.162613 1281.714885 93.183975 1281.207439 88.781143 C1281.108074 87.918716 1282.445232 86.890671 1283.119793 85.939041 C1283.778606 86.906418 1284.925579 87.835373 1285.005413 88.848343 C1285.253338 91.995346 1284.932659 95.187027 1285.177532 98.334488 C1285.273968 99.572617 1286.282879 100.739670 1286.876385 101.939041 C1287.616253 101.052780 1288.736858 100.276047 1289.029094 99.260910 C1290.191814 95.222153 1291.057049 91.098770 1292.123455 87.030533 C1292.392742 86.003159 1292.999187 85.064163 1293.450603 84.084549 C1294.373211 84.576767 1295.616741 84.837906 1296.164959 85.599564 C1299.193523 89.807358 1302.371135 94.039993 1302.074627 99.624771 C1301.781536 105.148544 1303.523357 110.918686 1298.325359 115.716721 C1296.830242 117.096817 1297.229656 121.816177 1298.267132 124.399399 C1300.845623 130.819901 1300.359905 138.884140 1306.330120 143.483810 C1316.053509 150.975235 1317.688152 162.827255 1323.282512 172.522659 C1328.083660 180.843124 1326.358318 189.840561 1325.693157 198.335281 C1325.267742 203.769913 1320.960491 208.906998 1318.365520 214.163712 C1315.291302 220.391342 1312.229290 226.625809 1309.073650 232.812149 C1307.944988 235.024734 1306.840618 237.353439 1305.227215 239.192245 C1302.303386 242.524521 1298.956341 245.482346 1295.908977 248.712357 C1295.342083 249.313156 1295.204998 250.444778 1295.121746 251.354477 C1294.776165 255.134262 1294.023113 258.793442 1290.537395 260.933884 C1286.433025 263.454178 1289.691448 267.584061 1288.144939 270.647964 C1287.669719 271.589340 1287.918621 272.868515 1287.589641 273.915665 C1284.649578 283.275497 1285.746868 285.153183 1295.315227 289.011337 C1299.512615 290.703781 1302.493816 293.711929 1302.136028 298.911362 C1301.919231 302.063004 1302.414593 305.283829 1302.003216 308.396011 C1301.621746 311.281570 1300.559490 314.097305 1299.620037 316.884109 C1298.192302 321.119095 1296.525554 325.274918 1295.161541 329.528885 C1294.850994 330.497452 1294.940471 332.191483 1295.566814 332.766312 C1299.637737 336.502945 1302.359783 341.962601 1309.672039 341.223343 C1313.129558 340.873856 1316.926922 343.469070 1320.505535 344.892899 C1322.649456 345.745804 1324.578533 347.206009 1326.762981 347.873917 C1330.522869 349.023636 1333.043865 346.909073 1333.084881 342.827835 C1333.157635 335.566360 1330.073162 329.202408 1327.409832 322.684402 C1325.413860 317.799271 1322.617351 313.382767 1322.887615 307.462112 C1323.336101 297.639572 1322.170574 287.686813 1329.788738 279.744308 C1329.899822 279.628525 1330.037395 279.512680 1330.090008 279.370041 C1333.106121 271.204178 1337.784099 268.086166 1346.468548 267.894760 C1354.076092 267.727158 1361.202801 268.940598 1368.162517 272.321091 C1373.447552 274.888077 1376.005291 279.932083 1376.510906 284.265945 C1377.723919 294.659714 1378.803264 305.681778 1376.528484 315.674454 C1374.735637 323.549393 1371.149456 331.361099 1368.832073 339.408463 C1367.964153 342.422501 1368.314373 343.942337 1370.321697 345.646072 C1371.908489 346.992813 1373.412273 348.581985 1375.242351 349.461258 C1377.567669 350.578506 1380.506145 352.129288 1382.564983 351.495255 C1383.957561 351.066299 1384.567791 347.248672 1385.044353 344.850601 C1386.519451 337.431290 1387.807293 329.973648 1389.082439 322.516251 C1390.149456 316.275467 1390.910198 309.977188 1392.144329 303.771591 C1393.605877 296.421463 1395.557049 289.169357 1397.055828 281.825729 C1398.255413 275.947586 1399.173748 270.007889 1400.065960 264.072769 C1400.567425 260.736282 1400.600139 257.327621 1401.134319 253.998062 C1401.927166 249.056107 1399.121868 245.999710 1395.818035 243.188248 C1392.142010 240.059952 1388.426067 236.972214 1384.611370 234.016678 C1383.028972 232.790695 1381.167644 231.912247 1379.392010 230.952042 C1377.992840 230.195328 1376.530437 229.555374 1375.096111 228.863510 C1376.804607 227.555344 1378.559490 225.118515 1380.211468 225.186508 C1383.166546 225.308060 1386.047405 226.976608 1388.981365 227.930405 C1393.748699 229.480209 1397.841350 226.837326 1398.024456 221.832626 C1398.110271 219.486130 1397.408367 217.114334 1397.100261 214.749191 C1396.419964 209.527328 1395.630779 204.312943 1395.214153 199.069412 C1395.136150 198.088333 1396.588665 196.985611 1397.334881 195.939041 C1397.921917 196.978134 1398.748211 197.951859 1399.053264 199.068039 C1400.161907 203.123947 1400.968303 207.266373 1402.187786 211.285355 C1402.485760 212.267502 1403.922405 212.904221 1404.835491 213.699722 C1405.589031 212.511917 1406.876140 211.378403 1407.003582 210.126846 C1407.553142 204.729996 1407.752483 199.297806 1408.106121 193.880234 C1408.168010 192.930313 1408.137859 191.873764 1408.552410 191.075150 C1408.987224 190.237839 1409.905681 189.651688 1410.612835 188.955765 C1411.107219 189.917618 1412.007122 190.870102 1412.029583 191.842789 C1412.163738 197.672836 1412.024456 203.509109 1412.156902 209.339249 C1412.183269 210.496475 1412.992473 211.635910 1413.440594 212.783585 C1413.992473 211.782547 1414.691082 210.833847 1415.070110 209.771133 C1416.469158 205.847031 1417.643108 201.837570 1419.184490 197.973038 C1419.545574 197.067917 1421.015911 196.605240 1421.975872 195.939011 C1422.349285 196.663223 1423.041790 197.386795 1423.043255 198.111679 C1423.050823 202.100876 1423.914837 206.265823 1420.223064 209.477646 C1419.352825 210.234695 1419.284344 212.085312 1419.166912 213.460159 C1419.111248 214.110245 1419.699138 214.945114 1420.233196 215.439102 C1420.399578 215.592972 1421.329632 214.864792 1421.938762 214.608688 C1422.965862 214.176804 1424.015911 213.799484 1425.056316 213.399185 C1425.278240 214.870560 1426.234783 217.031448 1425.604412 217.703079 C1420.987957 222.622177 1421.892376 228.136429 1422.993450 233.916122 C1423.324016 235.651474 1422.312908 237.608078 1422.116863 239.484329 C1421.397747 246.369064 1420.457683 253.249557 1420.161785 260.155685 C1419.601482 273.231247 1419.705120 286.338852 1418.974163 299.401901 C1418.632854 305.505203 1416.888103 311.520340 1415.971966 317.604507 C1415.363567 321.644424 1414.559368 325.801102 1417.882488 329.284317 C1418.488323 329.919266 1419.214275 331.511368 1419.021770 331.680679 C1412.822429 337.134842 1420.345623 342.883072 1418.545208 348.997147 C1416.572307 355.697037 1417.902141 363.434341 1418.197185 370.703140 C1418.306072 373.386429 1419.900310 375.367203 1423.334636 374.996780 C1427.095135 374.591080 1426.035320 371.913467 1426.065471 369.827896 C1426.152263 363.829361 1426.139202 357.828323 1426.082195 351.829117 C1426.037884 347.157547 1425.645672 342.458694 1429.062542 338.542923 C1429.633709 337.888504 1430.128460 336.807327 1430.037029 335.993179 C1429.424602 330.544815 1432.946819 329.094131 1437.048382 326.705826 C1445.534954 321.764175 1454.339031 324.633499 1462.948284 324.054886 C1471.001995 323.513565 1474.221721 318.420181 1470.041179 311.076370 C1466.185589 304.303238 1464.496135 296.287949 1457.925457 290.981857 C1456.177898 289.570602 1455.715618 286.282059 1455.154217 283.746719 C1453.963665 278.370041 1452.610271 272.942856 1452.373943 267.490860 C1452.296917 265.712784 1455.234905 263.464249 1457.216961 262.005569 C1461.739055 258.677414 1462.279827 256.209305 1459.296917 251.550278 C1458.239666 249.898911 1457.386516 247.890457 1457.179485 245.965500 C1456.654461 241.083969 1456.623699 236.451065 1454.787639 231.454391 C1452.877239 226.255112 1452.871746 220.186325 1450.403972 214.735886 C1449.950481 213.734146 1453.248211 209.773636 1455.293987 209.314194 C1456.829632 208.969315 1460.303753 211.695602 1460.896526 213.662827 C1463.678753 222.893967 1465.614910 232.375839 1468.153118 241.686447 C1469.605022 247.013260 1472.167034 248.081406 1477.289715 246.236710 C1477.432537 246.185287 1477.559368 245.935959 1477.663616 245.953934 C1484.504558 247.132278 1491.348797 248.294266 1498.176067 249.548111 C1499.844280 249.854507 1501.488445 250.949387 1503.087566 250.842575 C1506.866009 250.590286 1508.498699 252.180984 1509.504192 255.742722 C1511.913372 264.275070 1512.462688 272.429123 1510.570720 281.444443 C1508.805095 289.858322 1506.297771 297.623856 1502.507854 305.194351 C1501.973186 306.262405 1502.938640 308.081375 1503.209759 309.552811 C1504.368084 308.985428 1505.794353 308.677628 1506.638347 307.805862 C1510.397869 303.922195 1514.010052 299.894547 1517.625896 295.874405 C1518.239910 295.191788 1519.043865 294.284866 1519.031048 293.493454 C1518.842815 281.917404 1525.097454 272.714645 1530.113323 263.058975 C1530.546673 262.224808 1531.106243 261.384842 1531.803631 260.770767 C1537.088787 256.117630 1537.987591 250.712784 1533.668743 245.157059 C1530.945843 241.654434 1527.435467 238.761948 1524.263592 235.610733 C1520.643474 232.014450 1517.509197 228.353134 1518.962566 222.545517 C1519.307293 221.168076 1518.261760 219.190170 1517.357708 217.816208 C1516.201214 216.058640 1514.458172 214.697464 1513.143963 213.026993 C1512.729900 212.500320 1512.881878 211.528336 1512.774822 210.760178 C1513.579632 210.684128 1514.647747 210.240707 1515.143352 210.595871 C1517.234661 212.094772 1519.868328 213.450790 1520.994671 215.558517 C1523.575481 220.388016 1527.308513 221.692032 1532.292644 220.944748 C1534.178264 220.662003 1535.927410 221.091629 1535.030071 223.401749 C1533.125408 228.304092 1537.084392 229.896805 1539.875408 230.696182 C1542.924602 231.569534 1546.338299 230.513657 1546.163982 225.762680 C1546.090130 223.749130 1546.466717 221.590958 1547.205730 219.722977 C1547.660076 218.575333 1549.099041 217.319077 1550.265056 217.124557 C1551.057049 216.992416 1552.893230 218.566605 1552.953045 219.464951 C1553.122234 222.005081 1552.372478 224.595474 1552.428020 227.156418 C1552.546673 232.631241 1552.763836 238.117996 1553.304241 243.563766 C1553.577190 246.313889 1553.845867 249.951797 1555.595501 251.393814 C1557.056927 252.598312 1560.669109 251.009995 1563.333172 250.973618 C1570.664959 250.873550 1577.998821 250.937943 1585.331951 250.939407 C1591.387493 250.940628 1598.223430 256.226486 1599.019695 262.163498 C1600.005413 269.510971 1600.666424 276.923996 1600.970989 284.329086 C1601.081707 287.020889 1599.979290 289.847641 1599.052776 292.479935 C1596.853924 298.727158 1594.395305 304.882401 1592.106243 311.098587 C1590.032024 316.731888 1590.061321 321.889053 1595.497600 325.867935 C1599.737102 328.970840 1603.800213 332.317825 1608.077801 335.365128 C1611.468059 337.780289 1613.837810 336.645645 1614.083538 332.654068 C1614.464885 326.462051 1614.318157 320.202042 1615.182415 314.082047 C1617.451702 298.013901 1611.709881 282.548569 1611.954632 266.640579 C1611.986492 264.570755 1610.046062 262.493668 1609.105633 260.381424 C1606.412029 254.331589 1604.059978 248.107803 1601.016399 242.241531 C1597.655681 235.764053 1593.572185 229.666000 1589.999309 223.292892 C1586.900554 217.765701 1584.073406 212.086197 1581.130901 206.471542 C1580.413738 205.103165 1579.807415 203.667221 1578.990642 202.362106 C1576.673260 198.659134 1573.125042 195.563400 1574.921917 190.241776 C1575.436809 188.716568 1574.121746 186.336533 1573.180462 184.600723 C1570.260418 179.215195 1566.592083 174.201279 1570.008831 167.485123 C1571.918255 163.731796 1569.588787 160.187088 1568.193157 156.648544 C1567.689251 155.370895 1568.295818 153.655289 1568.395672 152.139542 C1569.318157 152.928452 1570.260784 153.695297 1571.156902 154.513168 C1571.894817 155.186539 1572.482830 156.074356 1573.311565 156.583267 C1574.108684 157.072800 1575.129558 157.197800 1576.052166 157.482986 C1576.158977 156.560410 1576.588299 155.527847 1576.317669 154.733963 C1575.025799 150.944839 1573.446941 147.253098 1572.172893 143.458633 C1571.577434 141.685654 1571.106243 139.740280 1571.206951 137.907608 C1571.281292 136.555771 1572.373455 135.259903 1573.012127 133.939041 C1573.706829 135.037247 1574.402508 136.134750 1575.095745 137.233810 C1575.638225 138.093765 1576.177776 138.955612 1576.718670 139.816666 C1577.165691 138.678635 1577.984173 137.527725 1577.945354 136.406540 C1577.912761 135.464615 1576.727215 134.619797 1576.323284 133.622177 C1575.406780 131.358414 1573.353191 128.190079 1576.860393 127.216751 C1579.038128 126.612473 1582.733562 124.924393 1584.418621 130.400406 C1587.379192 140.021194 1592.091350 149.136124 1591.037517 159.597977 C1590.759319 162.360855 1590.096721 165.191360 1589.025677 167.745499 C1586.909710 172.791428 1588.633587 177.357803 1593.653484 178.939072 C1599.715984 180.848770 1601.946575 183.852707 1602.104534 190.217361 C1602.169597 192.835739 1601.132366 195.869919 1605.681927 196.309616 C1606.722332 196.410172 1609.981731 198.045059 1608.313030 201.827347 C1606.640911 205.617111 1610.667278 207.010330 1613.515545 207.701035 C1615.759563 208.245255 1617.956951 208.784225 1619.328167 204.797958 C1622.675213 195.068069 1626.831463 185.557693 1631.422405 176.337631 C1633.984783 171.191299 1638.536297 167.057999 1641.306438 161.984940 C1643.301189 158.332382 1645.057781 154.975571 1649.109783 153.386917 C1649.515789 153.227737 1650.023357 152.707138 1650.059368 152.315262 C1651.067180 141.340134 1657.072307 130.917038 1653.251995 119.339584 C1652.254192 116.316055 1652.710735 112.693039 1655.498577 109.827316 C1656.637005 108.657181 1656.529705 106.319595 1657.113811 104.554367 C1657.839519 102.361160 1658.694256 100.210678 1659.493328 98.041763 C1661.558635 100.173477 1664.714397 101.507309 1664.155315 105.437851 C1663.830120 107.724838 1664.196209 110.101334 1664.070232 112.427780 C1663.916546 115.267288 1664.248943 117.402756 1667.968303 116.970352 C1671.225017 116.591721 1671.174724 118.922470 1671.105266 121.186295 C1671.057537 122.741959 1670.857097 124.344955 1671.138592 125.849442 C1672.201580 131.531601 1676.051433 132.760422 1680.573406 128.961502 C1682.675701 127.195267 1684.600384 125.115402 1686.951214 123.791000 C1688.110760 123.137772 1690.054973 123.877640 1691.644207 123.987137 C1691.120647 125.145432 1690.795696 126.456314 1690.041912 127.437759 C1684.105999 135.165421 1678.016399 142.775436 1672.124553 150.535965 C1668.883465 154.804855 1666.074993 159.407364 1662.745525 163.600571 C1661.964519 164.584396 1659.858440 164.889664 1658.371990 164.866562 C1654.635906 164.808609 1652.779461 166.342300 1653.105633 170.127579 C1653.855510 178.829453 1650.731365 186.542953 1647.113567 194.150375 C1646.653118 195.118515 1646.012737 196.263290 1646.159588 197.218002 C1647.880657 208.408035 1642.109417 217.897446 1638.442058 227.569351 C1636.298382 233.222977 1639.192669 236.533432 1640.472576 240.614822 C1641.934246 245.276108 1644.395305 249.661972 1646.739177 253.996017 C1648.436077 257.133987 1650.879192 259.867264 1652.588299 262.999954 C1657.057293 271.190750 1659.560100 272.118240 1667.953167 267.461533 C1670.595257 265.995651 1673.425823 264.047409 1674.966350 261.571152 C1679.684856 253.986191 1677.089885 244.830154 1669.360882 239.671280 C1668.844158 239.326431 1668.214641 238.743393 1668.141643 238.203171 C1667.278240 231.801559 1665.090984 225.463791 1668.387371 218.976974 C1669.619060 216.553024 1670.311931 213.372696 1669.947185 210.716202 C1669.075847 204.371964 1667.302776 198.157455 1666.143719 191.844650 C1665.450237 188.067215 1664.207927 184.447037 1666.670574 180.361008 C1667.613445 178.796494 1664.736980 175.154495 1664.138225 172.344650 C1663.824138 170.871017 1664.671795 169.149826 1664.994793 167.540421 C1666.035198 168.179916 1667.006023 169.030777 1668.134685 169.402206 C1669.376873 169.810989 1670.920696 170.240768 1672.059978 169.855026 C1675.950847 168.537888 1679.926555 168.852554 1683.797649 168.463608 C1692.351970 167.604172 1699.947185 169.514969 1707.804119 171.834610 C1710.103557 172.513535 1712.781536 172.070206 1715.271160 171.911301 C1720.219036 171.595566 1721.965984 174.751663 1723.115398 178.745956 C1723.539959 180.221451 1723.780803 182.084152 1724.798626 182.999100 C1730.425945 188.057755 1730.948284 194.020096 1728.782024 200.803146 C1727.146526 205.924667 1728.348552 210.817551 1731.007854 215.311539 C1734.939861 221.956253 1732.873577 232.507919 1726.869304 237.844742 C1725.253460 239.280777 1724.324505 241.767899 1723.660442 243.949203 C1720.314983 254.936630 1723.333294 262.825821 1732.012737 266.355759 C1735.809612 267.899948 1738.457927 266.273544 1739.146648 262.308701 C1739.622722 259.569412 1740.784221 256.947952 1741.242962 254.207443 C1741.554119 252.348495 1741.014080 250.361710 1741.163128 248.456192 C1741.273845 247.040787 1741.715008 244.531296 1742.290813 244.447586 C1747.341106 243.713394 1747.971111 239.282730 1749.453899 235.916946 C1751.125408 232.122482 1751.566570 227.793594 1753.173260 223.961441 C1756.104168 216.970383 1751.566692 211.941757 1749.014690 206.452133 C1746.605022 201.268600 1743.424969 196.440750 1741.061077 191.239456 C1740.093548 189.110703 1740.801800 186.262894 1740.003826 184.005112 C1738.571331 179.951889 1736.602337 176.085495 1734.798870 172.168045 C1734.345745 171.183548 1733.319256 170.361008 1733.150310 169.363449 C1731.416546 159.119949 1726.902263 150.418320 1719.689983 142.886093 C1715.963909 138.994736 1712.782879 134.509476 1709.843792 129.976059 C1708.832805 128.416519 1709.483684 125.858322 1709.050457 123.825607 C1708.503216 121.257034 1707.937542 118.608292 1706.811321 116.267807 C1705.287639 113.101913 1705.876140 111.685318 1709.455242 110.715256 C1710.040569 110.556625 1710.778118 108.654037 1710.484051 107.971420 C1709.447185 105.563370 1707.821941 103.411484 1706.751507 101.014359 C1705.938518 99.193527 1705.230999 97.143539 1705.251507 95.203690 C1705.262981 94.106979 1706.839763 93.026718 1707.711590 91.939041 C1708.173015 92.908463 1708.546551 93.933578 1709.116985 94.834030 C1709.957561 96.161179 1710.938396 97.399521 1711.859539 98.675674 C1711.938396 97.317886 1712.354290 95.867233 1712.012127 94.625412 C1711.570843 93.022873 1710.229534 91.663467 1709.813762 90.059830 C1709.332073 88.202774 1708.615154 85.182144 1709.474041 84.486862 C1710.788860 83.422470 1714.548015 83.019608 1715.210491 83.894730 C1719.166912 89.121140 1722.869915 94.612595 1725.983074 100.379410 C1728.230266 104.542160 1729.608318 109.215042 1731.023235 113.769363 C1731.768963 116.169815 1732.649090 119.099991 1731.922405 121.274216 C1730.080974 126.783310 1731.436443 131.431656 1733.825237 136.293442 C1735.034832 138.755234 1735.134319 141.743729 1736.188518 144.308029 C1736.767864 145.717697 1738.231487 146.798264 1739.396892 147.923080 C1740.564983 149.050491 1741.973186 149.943497 1743.058391 151.137161 C1743.876751 152.037186 1744.122844 153.515854 1745.014568 154.281937 C1755.661663 163.427994 1762.550579 175.059036 1767.629436 187.939560 C1768.645061 190.515518 1769.795696 193.072220 1771.212200 195.441696 C1771.909832 196.608627 1772.634197 198.202103 1774.468548 195.408066 C1776.787151 191.876236 1778.304363 188.669388 1778.254192 184.359390 C1778.225384 181.885605 1779.636760 179.331955 1780.652263 176.920517 C1784.118450 168.689468 1787.862102 160.571884 1791.181560 152.283493 C1794.045208 145.133286 1796.017986 137.596939 1799.253826 130.635391 C1801.479900 125.846207 1800.608684 121.660873 1799.739788 116.973892 C1797.919964 107.158829 1796.533001 97.259567 1795.189007 87.364883 C1795.002361 85.990921 1796.067913 84.446854 1796.553631 82.981461 C1797.401165 84.435410 1798.110271 85.994553 1799.121502 87.323959 C1802.396282 91.628616 1800.399456 98.329880 1805.464397 101.623245 C1806.913250 102.565292 1810.227337 103.063492 1810.992107 102.223312 C1814.799236 98.041031 1819.562176 99.821457 1823.627483 100.186172 C1827.923748 100.571609 1826.149334 104.425735 1825.418377 107.092880 C1824.406902 110.783279 1821.048992 113.499283 1822.819500 118.399399 C1824.123089 122.006516 1825.546306 123.097000 1828.921428 122.957291 C1836.472698 122.644760 1842.996868 124.774734 1848.309978 130.536819 C1851.547649 134.048141 1853.568523 137.714371 1853.114544 142.586227 C1852.752971 146.465775 1852.337200 150.366959 1852.449260 154.244003 C1852.475261 155.146835 1854.808391 156.933060 1855.628948 156.703232 C1859.813518 155.531204 1863.683635 149.359787 1864.176800 144.945969 C1864.660198 140.617966 1868.717815 137.046249 1867.093548 132.180984 C1866.458294 130.278702 1865.822918 128.375595 1865.131511 126.493454 C1864.867229 125.773636 1864.075725 125.065964 1864.153850 124.430161 C1864.884929 118.483078 1861.406292 114.236954 1858.438274 109.764908 C1857.926433 108.993851 1857.236126 108.172348 1857.143474 107.318222 C1856.275921 99.322800 1853.828899 91.822586 1850.305950 84.636307 C1850.172161 84.363419 1850.081707 84.022110 1850.108196 83.724930 C1850.950603 74.276932 1846.113323 67.142288 1840.858074 60.017258 C1839.288250 57.888931 1838.510052 54.883835 1838.195843 52.184219 C1837.571941 46.821808 1838.167766 41.222153 1833.724895 36.979858 C1833.362591 36.633743 1833.413494 35.121475 1833.603069 35.051895 C1834.674480 34.658386 1836.170574 33.981400 1836.930706 34.421753 C1840.835003 36.683945 1841.174846 35.134018 1840.088177 31.755905 C1839.379680 29.553421 1838.378338 27.419647 1837.919597 25.171127 C1837.611858 23.663208 1838.025188 22.008209 1838.116131 20.419022 C1839.038616 21.021606 1839.942180 21.656708 1840.891399 22.213898 C1841.417644 22.522827 1842.020427 22.701599 1842.588543 22.939041 C1842.757732 22.343903 1843.130535 21.719376 1843.049724 21.160339 C1842.919719 20.260895 1842.554119 19.375717 1842.173137 18.536682 C1841.538494 17.139145 1840.813152 15.782776 1840.126140 14.409042 C1841.756389 13.919037 1843.445843 12.903915 1845.001262 13.079071 C1846.736004 13.274460 1849.267132 14.135284 1849.854412 15.430557 C1852.265545 20.749908 1853.793499 26.467285 1856.168133 31.806168 C1858.944134 38.047516 1857.731609 44.411041 1856.774090 50.515945 C1855.884319 56.189285 1856.273357 61.105850 1859.458050 65.784836 C1861.765789 69.175247 1864.329998 72.404434 1866.436931 75.911575 C1867.281658 77.317886 1867.132488 79.295944 1867.574260 80.977371 C1867.968303 82.476761 1868.416912 83.991165 1869.081829 85.384201 C1870.678020 88.728165 1873.723430 91.970505 1873.811199 95.315964 C1873.970867 101.412918 1876.974895 105.751053 1879.983318 110.376419 C1880.555584 111.256027 1881.048137 112.394241 1881.037517 113.407547 C1881.006023 116.426529 1881.273235 118.945908 1883.703045 121.439774 C1884.932659 122.701797 1883.885052 126.020248 1884.214641 128.360031 C1884.693157 131.759079 1884.644817 135.649063 1886.362469 138.348953 C1888.406902 141.562057 1888.393596 144.120682 1887.300213 147.343124 C1886.939983 148.404495 1887.161175 150.019424 1887.765301 150.968246 C1888.670696 152.390396 1889.791302 154.130966 1891.179241 150.805374 C1894.619182 142.563187 1898.279705 134.396927 1902.252361 126.399277 C1904.532879 121.808609 1907.838054 117.732407 1910.203289 113.176132 C1911.387493 110.895035 1912.884929 107.048294 1911.861126 105.642349 C1906.887493 98.812271 1909.859051 91.323318 1909.224529 84.203262 C1909.048015 82.221268 1910.130047 79.922043 1911.209514 78.110977 C1911.847820 77.040115 1913.612224 76.640457 1914.870281 75.939041 C1915.278850 77.128036 1916.035076 78.318588 1916.029583 79.505630 C1916.014080 82.824783 1915.731365 85.979294 1920.093914 87.071426 C1920.979290 87.293045 1921.813274 89.151108 1922.010906 90.362411 C1922.328411 92.310562 1921.667888 94.472916 1922.204265 96.316818 C1922.881145 98.643967 1923.851604 101.986588 1925.575969 102.670303 C1928.792888 103.945816 1932.251385 102.962753 1933.729778 98.861832 C1934.300457 97.278641 1934.988689 95.303848 1936.252239 94.515121 C1937.800213 93.548813 1940.008098 93.639725 1941.930584 93.273514 C1942.000530 94.980576 1942.770427 97.144180 1942.010174 98.309738 C1939.655803 101.919174 1937.333782 106.159378 1933.855755 108.273911 C1929.362713 111.005386 1928.253338 115.414688 1926.283489 119.258102 C1924.283245 123.160599 1921.091350 126.791306 1921.782635 132.045883 C1921.963054 133.416916 1918.541546 135.909714 1916.336101 136.792191 C1913.174236 138.057358 1911.717083 139.536423 1912.036907 143.109818 C1913.009319 153.978226 1911.284344 164.526993 1908.170574 174.968613 C1905.902874 182.573105 1904.282390 190.373032 1902.446575 198.103226 C1900.861980 204.775009 1902.804851 210.604630 1906.661907 216.081223 C1908.711712 218.991776 1910.455974 222.150955 1912.027508 225.350540 C1912.763103 226.848129 1913.603435 229.228226 1912.936931 230.303665 C1911.014324 233.405563 1912.888225 233.691299 1915.026775 233.909348 C1918.095012 234.222183 1919.101116 235.937088 1919.132000 238.830429 C1919.181316 243.446030 1928.805584 254.121811 1933.208294 253.755417 C1936.286785 253.499222 1939.724041 252.098984 1942.029827 250.093338 C1943.373943 248.924149 1943.368572 245.460342 1942.986858 243.194595 C1941.975872 237.192825 1940.442791 231.278214 1939.085979 225.336075 C1938.775921 223.977280 1938.588909 222.506760 1937.923260 221.325455 C1929.022503 205.530197 1932.053509 189.166336 1936.684856 173.267960 C1938.519817 166.968918 1943.254070 160.930862 1952.049724 161.793472 C1953.949383 161.979782 1956.414959 160.756821 1957.947185 159.415024 C1961.057781 156.691177 1964.365642 157.392410 1966.730877 159.350357 C1969.728557 161.831894 1972.809246 161.964340 1976.220745 161.949478 C1983.871135 161.916153 1991.298626 168.009354 1992.012005 175.635605 C1993.012127 186.327866 1993.619304 197.068710 1993.951336 207.802536 C1994.026409 210.228561 1992.200481 212.685837 1991.381878 215.172256 C1988.918377 222.654892 1986.841717 230.286026 1983.953655 237.598373 C1982.609173 241.002029 1980.229534 244.013901 1981.174114 247.892563 C1981.449993 249.025436 1982.536541 250.647354 1983.469524 250.812332 C1987.109783 251.456192 1990.848186 251.903519 1994.526531 251.771591 C1995.752483 251.727585 1997.816936 249.817825 1997.934978 248.608475 C1998.386272 243.984695 1997.120281 239.015640 2001.807049 235.616623 C2002.240032 235.302567 2002.030803 234.082809 2002.093303 233.281509 C2002.388347 229.499649 2000.781048 225.207077 2005.017376 222.471634 C2005.179729 222.366776 2005.075237 221.849777 2005.096111 221.524857 C2005.877483 209.353317 2009.647869 197.763840 2011.830120 185.876968 C2012.486614 182.300156 2011.070965 177.159073 2008.667156 174.459763 C2004.170574 169.410477 2005.974407 162.477951 2002.113323 157.555649 C2001.548504 156.835556 2001.288372 155.275894 2000.762737 155.216995 C1994.241009 154.486465 1994.265789 148.629288 1992.078045 144.478867 C1988.974163 138.590195 1985.650066 132.816086 1982.616985 126.892166 C1981.290447 124.301163 1981.014324 121.012924 1979.275554 118.824692 C1975.422405 113.975815 1970.786175 109.755692 1966.809490 104.995071 C1965.397991 103.305374 1964.710125 100.858536 1964.150432 98.641586 C1962.962932 93.938187 1962.111736 89.150711 1961.020916 84.421158 C1960.893841 83.870377 1960.112102 83.046738 1959.655315 83.060379 C1954.087688 83.226822 1953.508220 78.536118 1951.717205 75.040054 C1951.450969 74.520615 1951.364910 73.908798 1951.195354 73.339767 C1951.973308 73.206161 1953.093426 72.685349 1953.464031 73.012802 C1954.506389 73.933884 1955.039470 75.488480 1956.143841 76.268967 C1957.744671 77.400284 1959.598552 78.537796 1961.475017 78.827560 C1964.155681 79.241531 1964.112224 77.238327 1963.052410 75.642105 C1960.518108 71.824966 1957.700237 68.196579 1955.141399 64.394699 C1954.691692 63.726456 1954.943889 62.585678 1954.871990 61.663132 C1955.794597 61.769638 1956.741497 61.780685 1957.633098 62.008377 C1958.604778 62.256546 1959.525310 62.705643 1960.468059 63.067154 C1959.944011 62.124374 1959.462932 61.154495 1958.887737 60.243973 C1957.091106 57.398666 1955.553386 54.548325 1958.846721 51.721146 C1959.668010 51.016098 1961.226116 49.842850 1961.502117 50.063675 C1962.573040 50.920517 1963.857830 52.194290 1963.978191 53.419449 C1964.271770 56.407150 1966.349407 58.166092 1967.557293 60.429276 C1971.065105 67.001511 1975.753094 72.288498 1980.919597 77.390274 C1981.430828 77.895004 1981.085735 79.294601 1981.090862 80.279129 C1981.105633 83.112259 1981.100384 85.945572 1981.095135 88.778793 C1981.086223 93.673508 1981.907024 97.622391 1985.146770 102.225418 C1989.872600 108.939957 1994.402263 115.182938 2001.249309 119.880203 C2003.253826 121.255325 2003.873089 124.669571 2005.076092 127.173904 C2005.272625 127.582962 2005.035442 128.240585 2005.280315 128.580124 C2008.897259 133.592880 2012.766643 138.435867 2016.170940 143.586868 C2022.674602 153.427353 2030.351970 162.601486 2033.179119 174.544357 C2034.489910 180.081528 2037.004680 185.328140 2038.409344 190.850052 C2040.262127 198.132889 2042.065349 205.494766 2042.979778 212.934586 C2044.417522 224.632736 2045.085613 236.425247 2046.155681 248.170822 C2046.182781 248.468155 2047.096111 248.684769 2047.846111 248.939041 C2048.096111 337.605728 2048.070720 426.272415 2048.191814 514.938919 C2048.196453 518.363174 2047.519207 519.033096 2044.096111 519.032608 C1364.096111 518.935684 684.096111 518.935684 4.096124 519.032608 C0.672809 519.033096 -0.005296 518.363297 0.000031 514.938919 C0.124213 435.105789 0.096111 355.272354 0.096111 275.189041 M899.096111 255.439041 C902.254802 251.308731 899.321087 247.226334 897.235760 244.966934 C887.927715 234.881485 878.468487 224.810074 866.830364 217.253616 C864.133281 215.502457 861.169475 213.677658 858.099529 213.097458 C853.364055 212.202469 851.697979 209.109543 849.980572 205.303360 C849.049663 203.240128 847.195965 200.562027 845.313579 200.138382 C837.305218 198.335953 829.149822 197.131271 821.005413 196.021561 C818.426922 195.670242 814.866924 195.287704 813.232647 196.667862 C809.162334 200.105301 803.949566 203.337753 805.006573 210.181808 C805.137493 211.029465 804.071453 212.081558 803.514568 213.011673 C802.473491 214.750565 800.763897 216.364914 800.459026 218.216629 C799.589702 223.495529 797.740398 228.199844 794.085064 232.100021 C786.421184 240.277267 779.027752 248.752762 770.848858 256.382919 C767.020489 259.954422 766.342022 264.552444 764.160808 268.630234 C762.939251 270.914017 762.740886 273.764969 761.436260 275.980423 C758.477703 281.004318 759.666607 287.938828 764.657146 290.928879 C768.785625 293.402451 772.854839 295.547989 778.031658 296.245407 C783.834698 297.027237 789.265301 300.334000 794.963604 302.223770 C798.319134 303.336655 802.412151 304.891434 802.112713 298.483841 C802.008953 296.264938 802.096111 294.037125 802.096111 291.813400 C802.096111 281.647232 802.126446 271.480942 802.076580 261.315018 C802.062725 258.491684 802.044353 256.019119 804.509014 253.716751 C805.829815 252.482925 805.679790 249.618912 806.077434 247.469131 C806.434307 245.539536 805.993694 243.103043 807.023113 241.726212 C809.849773 237.945511 813.302959 234.638443 816.437053 231.081223 C821.189556 225.687057 827.750957 224.188614 834.240398 222.114334 C841.039226 219.941177 849.670452 221.402542 855.041057 226.299545 C861.426433 232.121780 866.112774 239.157455 871.134563 246.089767 C875.349956 251.908951 878.860698 257.768814 881.161114 264.509995 C881.878948 266.613602 882.640606 269.724808 886.092205 266.529129 C890.096233 262.822006 894.414348 259.454147 899.096111 255.439041 M719.096111 336.439041 C718.762737 337.466019 718.722271 338.776871 718.047588 339.473038 C714.291790 343.348038 714.918865 347.759232 716.073711 352.349197 C716.673626 354.733597 717.822002 355.757278 720.135540 354.376480 C723.080181 352.618851 726.034466 350.861282 728.855816 348.916885 C734.468364 345.049026 741.941570 342.292557 740.002300 333.234756 C739.371135 330.286880 737.471782 327.633560 736.453838 324.739517 C735.173015 321.098038 733.142376 317.291092 733.337200 313.657486 C733.651836 307.788834 730.952984 299.081802 726.001140 296.544846 C724.417278 295.733353 721.513592 295.724442 720.120952 296.675980 C717.064800 298.764145 714.716778 301.580734 715.013714 305.973160 C715.364666 311.165909 715.045025 316.401260 715.133831 321.616165 C715.154644 322.837662 715.234356 324.558182 715.996380 325.180862 C719.423626 327.981277 719.190044 331.689896 719.096111 336.439041 M1153.096233 318.439041 C1153.250042 321.592972 1152.523479 325.141251 1153.725872 327.825516 C1157.091717 335.340042 1164.431682 338.259903 1171.595501 340.747635 C1173.374798 341.365555 1177.324016 342.707596 1178.002117 338.625992 C1178.486370 335.711746 1178.741253 332.475967 1177.980022 329.689224 C1175.260906 319.734879 1173.853924 309.757339 1173.870403 299.370590 C1173.880901 292.850113 1170.083416 287.127426 1165.143474 282.679123 C1164.421795 282.029312 1161.290325 282.622574 1161.269085 282.836960 C1160.712322 288.496475 1159.422649 293.824875 1157.303997 299.212967 C1155.047161 304.952408 1154.429485 311.336441 1153.096233 318.439041 M608.096111 390.439041 C607.762798 388.748672 607.189922 387.066055 607.134441 385.366592 C606.730022 372.983841 606.682232 360.581314 605.886211 348.226028 C605.723919 345.708084 602.871135 343.363541 601.258648 340.939041 C600.275432 342.368057 599.302288 343.804153 598.307171 345.224869 C594.911541 350.072708 590.434368 354.038101 590.082439 360.944046 C589.977459 363.003922 588.454815 366.081802 588.006206 368.907364 C587.626629 371.298294 586.740093 373.716324 585.571575 375.844315 C584.386211 378.003189 583.527996 379.805862 586.073528 381.397293 C592.140911 385.190689 598.194683 389.013626 604.403240 392.563492 C605.169292 393.001663 606.842998 391.852554 608.096111 390.439041 M1545.596111 332.939102 C1547.930095 330.605057 1550.153972 328.146622 1552.621868 325.963943 C1557.247844 321.872330 1558.887371 311.207047 1555.713543 305.974930 C1554.856853 304.562881 1554.671551 302.756058 1554.081829 301.166153 C1553.427654 299.402420 1553.067058 296.615524 1551.863323 296.158401 C1549.281658 295.178024 1546.908367 296.245712 1545.969524 299.498154 C1544.903850 303.190109 1543.566936 306.819473 1542.115032 310.380997 C1539.269939 317.359329 1536.193523 324.243790 1533.386760 331.236954 C1532.869060 332.526505 1532.926189 334.195938 1533.212688 335.588333 C1533.333294 336.174637 1534.737591 336.496841 1535.558269 336.939041 C1537.618572 332.723099 1541.914837 334.600418 1545.596111 332.939102 M785.596111 350.939041 C787.750652 351.760269 789.883526 352.646439 792.069195 353.374222 C793.104168 353.718826 794.436992 354.182693 795.263958 353.797073 C795.859173 353.519485 796.298076 351.766495 796.012676 350.948624 C795.053753 348.200150 794.393780 344.859573 792.421123 343.057083 C788.630230 339.593216 784.295757 336.439468 779.668133 334.256668 C775.113567 332.108353 769.932659 331.260757 764.995403 329.960587 C761.644329 329.078140 760.663738 331.813553 760.216533 334.007156 C759.674480 336.665726 759.640911 339.546097 763.072979 340.970779 C770.452617 344.034012 777.759441 347.272415 785.596111 350.939041 M806.096111 369.439041 C806.096111 370.102676 806.289837 370.841202 806.066814 371.418716 C803.132427 379.016861 806.495403 386.018936 808.183574 393.146744 C808.427898 394.178604 809.845196 394.932755 810.719768 395.815384 C811.178509 394.678055 811.820598 393.577469 812.057232 392.395706 C812.522564 390.071487 812.240459 387.462051 813.190655 385.394913 C816.487346 378.223160 815.600200 372.885818 809.484539 367.989700 C808.869365 367.497147 807.249614 368.259232 806.096111 369.439041 M1814.596233 182.938980 C1814.007122 182.016525 1813.500408 181.026077 1812.808758 180.188156 C1811.864422 179.044235 1810.779217 178.016525 1809.754436 176.939133 C1808.580852 178.059952 1807.025554 178.981857 1806.315594 180.344162 C1804.971599 182.923355 1804.002117 185.718918 1803.086956 188.493790 C1802.322429 190.812180 1801.857586 193.229416 1801.260052 195.602951 C1803.103802 195.714981 1804.946819 195.847153 1806.791790 195.930984 C1807.789593 195.976334 1808.898357 196.208481 1809.761394 195.864853 C1810.662151 195.506119 1811.585735 194.694870 1812.043377 193.837906 C1813.054851 191.944199 1813.933758 189.945236 1814.568645 187.896805 C1815.004192 186.491379 1814.938030 184.930466 1814.596233 182.938980 M903.096111 267.439041 C903.607219 265.950150 904.118328 264.461258 904.629375 262.972336 C903.108867 262.627914 901.200420 261.534866 900.142559 262.083145 C897.267925 263.572922 894.396831 265.425125 892.208050 267.771500 C890.431865 269.675613 890.669170 272.514389 894.243328 271.788528 C897.167583 271.194656 899.822063 269.272415 903.096111 267.439041 M896.596111 284.939041 C898.280987 284.920853 899.965801 284.902664 901.650615 284.884476 C901.502178 282.772385 901.561626 280.605026 901.027874 278.595291 C900.922588 278.198959 898.189617 277.866013 897.262737 278.448807 C895.034832 279.849686 893.824199 281.931015 896.596111 284.939041 M808.096111 290.439011 C807.429424 290.461014 806.180645 290.464279 806.179302 290.507706 C806.087322 293.370193 805.977886 296.243484 806.161358 299.097153 C806.223858 300.069534 807.045086 300.993149 807.519573 301.939011 C808.045086 300.848862 808.975933 299.772873 809.014629 298.665726 C809.104351 296.098160 808.762798 293.515549 808.096111 290.439011 M1140.595989 123.939041 C1140.516521 125.526199 1140.157146 127.171127 1140.468426 128.677689 C1140.639812 129.507889 1142.222576 130.844315 1142.673992 130.669968 C1144.053264 130.137375 1142.797283 124.643173 1140.595989 123.939041 z"/><path class="selected"  fill="#000000" opacity="1.000000" stroke="none" 
 	d="
M360.346111 121.689041 C361.014049 120.023666 361.932018 118.608261 362.849956 117.192886 C363.265331 119.149399 363.680736 121.105942 364.096111 123.062454 C362.929455 122.688004 361.762768 122.313522 360.346111 121.689041 z"/><path class="selected"  fill="#000000" opacity="1.000000" stroke="none" 
 	d="
M1827.346111 90.189041 C1827.712078 90.055038 1827.922161 90.165176 1827.929851 90.287888 C1828.034221 91.971268 1828.118572 93.656235 1828.150066 95.341904 C1828.150799 95.386063 1827.498089 95.442429 1827.150188 95.493118 C1827.132122 93.808456 1827.114055 92.123734 1827.346111 90.189041 z"/><path class="selected"  fill="#000000" opacity="1.000000" stroke="none" 
 	d="
M360.096111 109.939041 C360.772228 110.762955 360.948314 111.586838 361.124401 112.410751 C359.869823 112.175034 358.615276 111.939316 357.360698 111.703629 C358.105846 111.115433 358.850994 110.527237 360.096111 109.939041 z"/><path class="selected"  fill="#000000" opacity="1.000000" stroke="none" 
 	d="
M48.346111 72.189041 C49.358490 72.509995 50.120868 73.080948 50.883243 73.651901 C50.094188 74.054276 49.305134 74.456650 48.516086 74.859024 C48.376095 74.052353 48.236103 73.245712 48.346111 72.189041 z"/></svg>