<?xml version="1.0" encoding="UTF-8" standalone="no"?>
<!-- Created with Inkscape (http://www.inkscape.org/) -->
<svg
   xmlns:dc="http://purl.org/dc/elements/1.1/"
   xmlns:cc="http://creativecommons.org/ns#"
   xmlns:rdf="http://www.w3.org/1999/02/22-rdf-syntax-ns#"
   xmlns:svg="http://www.w3.org/2000/svg"
   xmlns="http://www.w3.org/2000/svg"
   xmlns:xlink="http://www.w3.org/1999/xlink"
   xmlns:sodipodi="http://sodipodi.sourceforge.net/DTD/sodipodi-0.dtd"
   xmlns:inkscape="http://www.inkscape.org/namespaces/inkscape"
   width="36"
   height="38"
   id="svg2"
   sodipodi:version="0.32"
   inkscape:version="0.46"
   sodipodi:docbase="G:\Projs\Cliparts Stocker\released"
   sodipodi:docname="arrow_orange_up.svg"
   inkscape:export-filename="/datas/wiki/arrow_orange_up.png"
   inkscape:export-xdpi="90.000000"
   inkscape:export-ydpi="90.000000"
   inkscape:output_extension="org.inkscape.output.svg.inkscape"
   version="1.0">
  <defs
     id="defs4">
    <linearGradient
       id="linearGradient1552">
      <stop
         style="stop-color:#f9cc84;stop-opacity:1.0000000;"
         offset="0.0000000"
         id="stop1554" />
      <stop
         style="stop-color:#fed27f;stop-opacity:1.0000000;"
         offset="1.0000000"
         id="stop1556" />
    </linearGradient>
    <linearGradient
       id="linearGradient1518">
      <stop
         id="stop1520"
         offset="0.0000000"
         style="stop-color:#f3ac39;stop-opacity:0.62876254;" />
      <stop
         id="stop1522"
         offset="1.0000000"
         style="stop-color:#fcba94;stop-opacity:0.78260869;" />
    </linearGradient>
    <linearGradient
       id="linearGradient1425">
      <stop
         id="stop1427"
         offset="0.0000000"
         style="stop-color:#f0d81f;stop-opacity:1.0000000;" />
      <stop
         id="stop1429"
         offset="1.0000000"
         style="stop-color:#f07d0a;stop-opacity:1.0000000;" />
    </linearGradient>
    <radialGradient
       inkscape:collect="always"
       xlink:href="#linearGradient1425"
       id="radialGradient1687"
       gradientUnits="userSpaceOnUse"
       gradientTransform="matrix(-0.131601,1.116951,-1.057619,-0.124616,33.35703,39.58492)"
       cx="-18.299662"
       cy="0.40529791"
       fx="-18.299662"
       fy="0.40529791"
       r="17.099951" />
    <linearGradient
       inkscape:collect="always"
       xlink:href="#linearGradient1552"
       id="linearGradient1696"
       gradientUnits="userSpaceOnUse"
       gradientTransform="matrix(-1,0,0,-1,63.9923,63.962)"
       x1="36.312469"
       y1="47.962479"
       x2="30.301865"
       y2="16.23819" />
    <linearGradient
       inkscape:collect="always"
       xlink:href="#linearGradient1552"
       id="linearGradient1699"
       gradientUnits="userSpaceOnUse"
       gradientTransform="matrix(-1,0,0,-1,64.02652,64)"
       x1="32"
       y1="16.238235"
       x2="27.856573"
       y2="47.922497" />
    <linearGradient
       inkscape:collect="always"
       xlink:href="#linearGradient1518"
       id="linearGradient1702"
       gradientUnits="userSpaceOnUse"
       x1="32"
       y1="16.238235"
       x2="27.856573"
       y2="47.922497"
       gradientTransform="matrix(-1,0,0,-1,64,64)" />
    <radialGradient
       inkscape:collect="always"
       xlink:href="#linearGradient1425"
       id="radialGradient2506"
       gradientUnits="userSpaceOnUse"
       gradientTransform="matrix(-0.131601,1.116951,-1.057619,-0.124616,33.35703,39.58492)"
       cx="-18.299662"
       cy="0.40529791"
       fx="-18.299662"
       fy="0.40529791"
       r="17.099951" />
    <linearGradient
       inkscape:collect="always"
       xlink:href="#linearGradient1518"
       id="linearGradient2508"
       gradientUnits="userSpaceOnUse"
       gradientTransform="matrix(-1,0,0,-1,64,64)"
       x1="32"
       y1="16.238235"
       x2="27.856573"
       y2="47.922497" />
    <linearGradient
       inkscape:collect="always"
       xlink:href="#linearGradient1552"
       id="linearGradient2510"
       gradientUnits="userSpaceOnUse"
       gradientTransform="matrix(-1,0,0,-1,64.02652,64)"
       x1="32"
       y1="16.238235"
       x2="27.856573"
       y2="47.922497" />
    <linearGradient
       inkscape:collect="always"
       xlink:href="#linearGradient1552"
       id="linearGradient2512"
       gradientUnits="userSpaceOnUse"
       gradientTransform="matrix(-1,0,0,-1,63.9923,63.962)"
       x1="36.312469"
       y1="47.962479"
       x2="30.301865"
       y2="16.23819" />
  </defs>
  <sodipodi:namedview
     id="base"
     pagecolor="#ffffff"
     bordercolor="#666666"
     borderopacity="1.0"
     inkscape:pageopacity="0.0"
     inkscape:pageshadow="2"
     inkscape:zoom="13.078947"
     inkscape:cx="28.513078"
     inkscape:cy="19"
     inkscape:document-units="px"
     inkscape:current-layer="g1421"
     showgrid="false"
     inkscape:grid-bbox="true"
     inkscape:grid-points="true"
     inkscape:window-width="1156"
     inkscape:window-height="693"
     inkscape:window-x="44"
     inkscape:window-y="44"
     showguides="false">
    <inkscape:grid
       id="GridFromPre046Settings"
       type="xygrid"
       originx="0px"
       originy="0px"
       spacingx="1px"
       spacingy="1px"
       color="#0000ff"
       empcolor="#0000ff"
       opacity="0.2"
       empopacity="0.4"
       empspacing="4"
       visible="true"
       enabled="true" />
  </sodipodi:namedview>
  <metadata
     id="metadata7">
    <rdf:RDF>
      <cc:Work
         rdf:about="">
        <dc:format>image/svg+xml</dc:format>
        <dc:type
           rdf:resource="http://purl.org/dc/dcmitype/StillImage" />
        <dc:title>Arrow Orange Up</dc:title>
        <dc:date>2005-11-01</dc:date>
        <dc:creator>
          <cc:Agent>
            <dc:title>Jean-Victor Balin</dc:title>
          </cc:Agent>
        </dc:creator>
        <dc:description>jean.victor.balin@gmail.com</dc:description>
        <cc:license
           rdf:resource="http://creativecommons.org/licenses/publicdomain/" />
        <dc:subject>
          <rdf:Bag>
            <rdf:li>icon</rdf:li>
            <rdf:li>arrow</rdf:li>
          </rdf:Bag>
        </dc:subject>
        <dc:language>fr-FR</dc:language>
      </cc:Work>
      <cc:License
         rdf:about="http://creativecommons.org/licenses/publicdomain/">
        <cc:permits
           rdf:resource="http://creativecommons.org/ns#Reproduction" />
        <cc:permits
           rdf:resource="http://creativecommons.org/ns#Distribution" />
        <cc:permits
           rdf:resource="http://creativecommons.org/ns#DerivativeWorks" />
      </cc:License>
    </rdf:RDF>
  </metadata>
  <g
     inkscape:label="Calque 1"
     inkscape:groupmode="layer"
     id="layer1">
    <g
       id="g1421">
      <g
         id="g2499"
         transform="translate(-14,-13)">
        <path
           style="fill:#a54005;fill-opacity:1;stroke:none;stroke-width:0.1;stroke-linecap:round;stroke-linejoin:round;stroke-miterlimit:4;stroke-opacity:1"
           d="M 42,50 C 43,50 43,49 43,49 C 43,49 43,32.951199 43,32 C 44,31.951199 48,32 48,32 C 48.447249,31.990867 48.846408,31.890926 49.016051,31.476998 C 49.185693,31.06307 49.093451,30.587934 48.78125,30.267551 L 32.78125,14.267551 C 32.345817,13.845748 31.654183,13.845748 31.21875,14.267551 L 15.21875,30.267551 C 14.906549,30.587934 14.814307,31.06307 14.983949,31.476998 C 15.153592,31.890926 15.552751,31.990867 16,32 C 16,32 20,32 21,32 C 21,33 21,49.048801 21,49.048801 C 21,49.048801 21,50.048801 22,50.048801 C 28,50.048801 36,50 42,50 z"
           id="path2125"
           sodipodi:nodetypes="ccccsccccsccccc" />
        <path
           transform="matrix(-1,0,0,-1,64,64)"
           style="fill:url(#radialGradient2506);fill-opacity:1;stroke:none;stroke-width:0.1;stroke-linecap:round;stroke-linejoin:round;stroke-miterlimit:4;stroke-opacity:1"
           d="M 41.78125,15.15625 C 35.878269,15.157573 28.13792,15.217427 22.21875,15.21875 C 22.21875,15.621365 22.21875,31.061041 22.21875,32 C 22.219764,32.649489 21.711144,33.185602 21.0625,33.21875 C 19.968508,33.272138 17.004921,33.226586 16.4375,33.21875 L 32,48.78125 L 47.53125,33.21875 C 46.942005,33.218787 43.91195,33.21875 43,33.21875 C 42.326831,33.218923 41.781077,32.673169 41.78125,32 C 41.78125,31.012821 41.78125,15.557778 41.78125,15.15625 z"
           id="path3636" />
        <path
           style="fill:url(#linearGradient2508);fill-opacity:1;stroke:none;stroke-width:0.1;stroke-linecap:round;stroke-linejoin:round;stroke-miterlimit:4;stroke-opacity:1"
           d="M 23,47 C 23.90625,48.03125 40,48 41,47 C 42,46 40.878451,32.889567 40.90625,32 C 41,29 45,31 44,29 C 42,26 33,17 32,17 C 31,17 22,26 20,29 C 19,31 23,29 23.09375,32 C 23.122983,32.93544 21.90625,46.03125 23,47 z"
           id="path1511"
           sodipodi:nodetypes="ccscccsc" />
        <path
           style="fill:url(#linearGradient2510);fill-opacity:1;stroke:none;stroke-width:0.1;stroke-linecap:round;stroke-linejoin:round;stroke-miterlimit:4;stroke-opacity:1"
           d="M 44.026529,29 C 42.026529,26 33.026529,17 32.026529,17 C 31.026529,17 25,22.459068 23,25.50225 C 23.973471,25.50225 27,22 32,22 C 36,22 41,31 44.026529,29 z"
           id="path1548"
           sodipodi:nodetypes="ccccc" />
        <path
           style="fill:url(#linearGradient2512);fill-opacity:1;stroke:none;stroke-width:0.1;stroke-linecap:round;stroke-linejoin:round;stroke-miterlimit:4;stroke-opacity:1"
           d="M 31.965172,47.723759 C 36.226891,47.719853 40.496422,47.473759 40.996422,46.973759 C 41.694571,46.27561 41.396322,40.797705 41.152672,36.786259 C 41,34 41,34 40,37 C 36.50715,47.47855 23.918418,45.315747 22.590172,44.942509 C 22.65275,45.950187 22.765343,46.769089 22.996422,46.973759 C 23.449547,47.489384 27.703453,47.727665 31.965172,47.723759 z"
           id="path1558"
           sodipodi:nodetypes="cscsccc" />
      </g>
    </g>
  </g>
</svg>
